<?xml version="1.0" encoding="UTF-8"?>
<svg id="Layer_1" data-name="Layer 1" xmlns="http://www.w3.org/2000/svg" viewBox="0 0 564.45 441.94">
  <defs>
    <style>
      .cls-1 {
        fill: lime;
      }

      .cls-2 {
        fill: blue;
      }

      .cls-3 {
        fill: #ff0;
      }

      .cls-4 {
        fill: #ff2400;
      }

      .cls-5 {
        fill: #203349;
      }

      .cls-5, .cls-6, .cls-7, .cls-8, .cls-9, .cls-10, .cls-11, .cls-12 {
        fill-rule: evenodd;
      }

      .cls-6 {
        fill: #c7efa6;
      }

      .cls-7 {
        fill: #e25506;
      }

      .cls-8 {
        fill: #c9f0a7;
      }

      .cls-9 {
        fill: #333;
      }

      .cls-10 {
        fill: #8dd953;
      }

      .cls-11 {
        fill: #fcfa9d;
      }

      .cls-12 {
        fill: #fca271;
      }
    </style>
  </defs>
  <path class="cls-8" d="M91.76,32.7v9.43h46.36c2.14,0,3.89,1.75,3.89,3.89v22.05c0,2.14-1.75,3.89-3.89,3.89h-46.36v13.51h51.93c2.14,0,3.89,1.75,3.89,3.89v21.5c-3.48,3.27-12.1,4.38-15.09,6.72l-77.15,.13c-2.14,0-3.89-1.75-3.89-3.89V5.7c0-2.14,1.75-3.89,3.89-3.89h86.74c2.14,0,3.89,1.75,3.89,3.89V28.81c0,2.14-1.75,3.89-3.89,3.89h-50.32Zm105.66,45v25.11c-5.98-.66-8.67,.97-14.08,2.23-4.4,1.02-5.49,2.17-7.51,2.94-.47,.18-8.11-.06-14.98,5.51-1.16-.55-2.41-.94-3.73-1.14V5.7c0-2.14,1.75-3.89,3.89-3.89h53.92c10.46,0,21.42,2.16,29.13,9.75,7.42,7.31,9.93,17.24,9.93,27.38,0,10.72-2.91,20.84-10.76,28.42-8.43,8.14-20.61,10.33-31.91,10.33h-13.89ZM268.28,1.81h32.53c2.14,0,3.89,1.75,3.89,3.89V97.87c-5.84-2-7.6-2.16-16.08-1.53l-17.07,2.36c-.84,.2-3.57-.32-7.16-.14V5.7c0-2.14,1.75-3.89,3.89-3.89h0Zm126.74,64.05l28.42,8.83c1.95,.61,3.1,2.6,2.63,4.6-3.18,13.7-9.93,26.04-22.24,33.44l-2.01-.61c-7.12-1.79-10.14-3.66-18.8-4.5-7.34-.72-17.49-5.2-21.39-5.7-2.82-.36-7.77-2.44-15.06-2.54-3.82-.05-5.3-.69-9.75,.34-.45,.1-4.09-.73-8.91-.43-1.13-1.53-2.18-3.12-3.18-4.75-6.39-10.45-8.46-22.94-8.46-35.02,0-15.96,3.55-32.09,14.93-43.92,11.16-11.59,26.3-15.59,42.02-15.59,11.6,0,23.9,2.02,33.48,9,9.2,6.71,14.84,16.67,18.26,27.35,.7,2.19-.6,4.47-2.84,4.98l-28.57,6.52c-1.99,.45-3.99-.7-4.59-2.66-.56-1.84-1.44-4.45-2.58-6.03-3.02-4.17-7.18-6.32-12.33-6.32-5.97,0-10.4,2.32-13.66,7.34-3.25,5.01-3.82,13.33-3.82,19.12,0,6.09,.45,17.17,4.45,22.19,3.02,3.79,7.09,5.18,11.85,5.18,4.12,0,8.32-.87,11.15-4.07,3.27-3.69,5.02-9.09,6.02-13.83,.48-2.26,2.76-3.6,4.96-2.91h0Zm102.67-24.2c11.13,3.4,22.82,8.48,28.95,18.98,3.22,5.52,4.71,11.58,4.71,17.97,0,7.67-2.06,14.8-6.18,21.27-9.79,15.39-26.87,19.65-44.11,19.65-13.15,0-30.14-1.81-39.84-11.8-7.86-8.1-11.81-18.15-12.73-29.34-.18-2.18,1.44-4.06,3.63-4.2l30.77-1.99c2.05-.13,3.85,1.35,4.11,3.39,.41,3.2,1.29,7.24,3.3,9.85,2.82,3.67,6.67,5.02,11.22,5.02,2.75,0,5.95-.45,8.08-2.36,1.48-1.33,2.46-2.85,2.46-4.88,0-1.92-.93-3.4-2.31-4.68-2.57-2.4-11.4-4.54-14.77-5.32-10.68-2.45-23.79-6.56-32.1-14.01-7.02-6.29-10.45-14.32-10.45-23.74,0-6.42,1.86-12.36,5.29-17.78,3.8-6.01,9.35-10.23,15.78-13.12,8.23-3.7,18.45-4.57,27.38-4.57,25.24,0,43.81,8.56,47.06,35.69,.27,2.24-1.38,4.21-3.63,4.35l-26.63,1.63h0Zm-7.66-2.13c-.12-.28-.2-.58-.26-.89-1.21-7.39-4.35-10.78-12.03-10.78-1.87,0-4.5,.25-5.99,1.53-.98,.84-1.5,1.76-1.5,3.06,0,.79,.61,1.33,1.13,1.83,1.24,1.2,7.27,2.61,8.96,2.98,3.04,.67,6.33,1.42,9.69,2.27h0Zm-292.61,8.48c4.21,0,11.69,.33,14.78-2.4,1.74-1.54,2.49-3.37,2.49-5.69s-.68-4.27-2.27-5.98c-1.92-2.06-7.04-2.31-9.61-2.31h-5.39v16.38Z"/>
  <path class="cls-9" d="M55.35,5.7h86.74V28.81h-54.21v17.21h50.25v22.05h-50.25v21.29h55.82v24.9l-88.35-.44V5.7h0Zm105.66,0h53.92c11.75,0,20.54,2.87,26.4,8.63,5.84,5.76,8.77,13.97,8.77,24.61s-3.2,19.48-9.57,25.62c-6.37,6.17-16.12,9.24-29.21,9.24h-17.78v28.14c-.92,.07-1.86,2.1-2.83,2.21-5.86,.64-5.53,.2-13.02,1.56l-16.68,3.02V5.7h0Zm32.53,46.21h7.99c6.3,0,10.72-1.13,13.26-3.37,2.54-2.24,3.81-5.11,3.81-8.61s-1.1-6.27-3.32-8.63c-2.2-2.37-6.35-3.55-12.45-3.55h-9.28v24.16h0ZM268.28,5.7h32.53V103.58c-.65-.63-1.35-1.23-2.13-1.8-6.13-4.51-16.79-6.5-24.86-4.83-1.94,.4-3.78,.96-5.54,1.66V5.7h0Zm125.59,63.88l28.42,8.83c-3.31,14.24-10.61,26.75-24.32,33.02-6.08,2.79-13.82,4.2-23.22,4.2-11.43,0-20.73-1.71-27.98-5.11-7.23-3.42-13.45-9.44-18.7-18.02-5.25-8.58-7.89-19.61-7.89-32.99,0-17.87,4.61-31.61,13.85-41.23,9.25-9.59,22.32-14.4,39.22-14.4,13.21,0,23.61,2.74,31.18,8.25,7.54,5.51,13.19,13.97,16.85,25.39l-28.57,6.52c-1-3.27-2.05-5.66-3.15-7.17-3.74-5.19-9.08-7.93-15.48-7.93-7.37,0-13.02,3.04-16.92,9.11-2.95,4.51-4.44,11.6-4.44,21.24,0,11.98,1.76,20.16,5.3,24.61,3.54,4.43,8.5,6.64,14.9,6.64s10.89-1.79,14.07-5.39c3.17-3.57,5.47-8.78,6.91-15.6h0Zm38.51,8.48l30.77-1.99c.66,5.14,2.03,9.06,4.08,11.73,3.35,4.35,8.11,6.54,14.31,6.54,4.62,0,8.18-1.11,10.67-3.35,2.51-2.24,3.76-4.83,3.76-7.78s-1.17-5.31-3.54-7.53c-2.37-2.21-7.89-4.28-16.56-6.27-14.21-3.27-24.32-7.65-30.38-13.11-6.11-5.44-9.16-12.38-9.16-20.84,0-5.54,1.56-10.77,4.69-15.7,3.13-4.96,7.81-8.83,14.09-11.65,6.28-2.82,14.87-4.23,25.79-4.23,13.41,0,23.61,2.57,30.65,7.73,7.03,5.13,11.21,13.31,12.55,24.54l-30.48,1.86c-1.53-9.3-6.26-14.04-15.87-14.04-3.76,0-6.62,.83-8.52,2.47-1.9,1.64-2.86,3.65-2.86,6.01,0,1.71,.78,3.25,2.32,4.63,1.49,1.43,5.1,2.74,10.82,3.98,14.16,3.15,24.3,6.34,30.4,9.56,6.13,3.22,10.6,7.2,13.38,11.98,2.78,4.76,4.18,10.09,4.18,16.01,0,6.92-1.86,13.31-5.57,19.18-9.08,14.19-24.96,17.84-40.83,17.84-17.83,0-30.18-3.55-37.04-10.62-6.86-7.07-10.74-16.06-11.65-26.95Z"/>
  <path class="cls-10" d="M304.04,307.44c7.47,1.53,15.53,1.46,23.24,1.28,3.21-.08,21.47-1.88,22.62-1.34l.45,2.79c-10.59,4.61-37.22,5.07-46.3-2.74h0Zm-6.33-20.05c-2.03,6.41-14.96,8.53-11.54,.2,4.07-9.91,13.26-5.66,11.54-.2h0Zm22.55-8.65c-2.5,7.39-18.64,6.29-12.68-.56,2-2.3,3.61-6.23,6.92-6.14,3.37,.09,7.07,2.84,5.76,6.71h0Zm33.27-4.15c-1.97-7.09,11.49-7.79,12.63-.61,1.06,6.67-10.69,7.61-12.63,.61h0Zm-27.99-18.66c-10.29,1.06-15.75,5.8-23.92,8,2.63-3.68,17.77-8.24,22.44-9.22,10.53-2.2,17.73-3.28,28.49-1.88-1.97-2.2-8.05-5.88-10.88-8.66-6.23-6.12-3.11-7.48-4.71-13.49-5.44-.27-10.75,.79-13.04-5.58-1.35-3.75-.89-12.88,2.69-14.48l-.07,4.77c1.14-1.27,1.04-4.41,4.31-5.39-4.36,9.07,2.68,14.2,5.85,7.42h-3.73c-1.43-2.35,4.52-15.77,5.47-19.25,1.66-6.12,9.66-9.11,13.47-11.85-7.11,.04-15.45,3.07-20.93,7.65-1.76,1.47-5.78,5.45-6.98,7.36-1.58,2.51-3.11,8.55-6.57,7.58-1.12-2.8,5.47-15.87,6.21-20.24-26.77-5.02-37.35-8.76-64.7-4.24-2.71,.45-18.36,4.89-18.96,4.72,.2-3.41,5.88-3.74,7.59-5.81-7.08-.64-14.48-1.06-20.32-5.7-5.53-4.39-7.46-13.32-1.58-18.16,10.2-8.4,30.11-5.81,40.39,1.14-7.21-2.12-21.91-7.34-28.29-1.45-9.4,8.69,4.59,16.15,11.51,18.24,11.9,3.61,20.29,.79,31.64,.74,11.35-.05,21.97,2.31,33.42,2.09-3.13-3.91-31.64-11.91-37.49-15.34,7.47,1.3,24,8.87,31.5,12.27,8.76,3.96,9.04,2.39,17.43,4.14,6,1.25,13.05,2.68,18.54-.86-9.68-1.15-32.39-8.88-41.89-12.83-13.13-5.47-25.27-12.06-39.01-15.86-15.06-4.17-30.91-7.22-46.49-8.07-12.46-.67-29.85,6.96-39.59,15.15,2.82,1.42,9.92-5.85,20.66-.94l-19.26,12.23c4.47-1.03,15.28-6.47,17.36,.19,1.93,6.15-7.75,8.76-11.88,11.79,13.49,.05,2.59,8.35,2.14,9.55,12.11,.89,18.97-.09,30.16,5.34,2.93,1.42,4.87,3.83,6.8,4.8-8.39-1.11-17.02-1.36-25.79-2.59-4.49-.63-22.16-1.44-16.48-9.97-5.03,.06-14.13,5.2-13.31-3.9l-6.33,1.46c.39,1.02,1.44,3.21,1.42,4.18l-6.53-10.42c1.05,15.13,5.11,21.12,15.39,31.16,7.95,7.76,19.93,15.07,31.28,14.76,1.67-5.14,8.36-20.04,14.66-19.24-8.18,18.77-14.42,36.56-11.69,57.78,2.95,22.99,19.5,27.35,39.2,30.49,6.51,1.04,22.45,2.29,25.72,8.82,4.02,8.02-.92,4.91,8.21,9.21,3.66,1.73,9.37,3.43,13.36,3.9,7.59,.89,24.79,1.22,32.38,.37,6.06-.68,26.22-1.82,29.83-4.86-.21-6.14-16.71-12.98-21.85-15.01-4.67-1.84-7.78,3.15-11.76,5.57-4.18,2.54-9.59,4.09-14.44,3.77-14.74-.97-16.58,1.96-30.84-5.92-6.76-3.73-16.87-12.62-15.88-21.34l-3.75,1.41c.61-5.83,7.56-7.58,12.56-6.62l-7.28,4.39c7.26,21.61,38.38,28.12,56.55,17.66,9.04-5.2,15.9-16.42,28.01-12.46,8.09,2.65,24.75,11.38,32.18,2.77-4.31-.81-7.33-4.28-4.83-8.69,3.47-6.14,6.19-.83,8.28,1.6l.84-4.88c-2.24-2.04-1.87-2.81-5.3-5.29-7.85-5.68-14.3-7.5-24.05-7.68-15.26-.28-23.7-.5-38.77,3.06l14.52-4.89c-11.91-.27-16.4,4-25.83,6.15,4.94-5.69,18.32-7.55,22.52-10.59h0Zm-41.42-15.53c1.14,1.64,3.34,4.47,4.8,5.54,1.07,.79,2.27,1.44,3.27,2.18,1.02,.76,1.84,1.69,2.9,2.51-3.99-.12-4.56-.67-7.7-2.77-3.03-2.03-3.89-3.48-3.26-7.46h0Zm-19.25-16.5c1.44,2.15,2.8,2.47,4.7,5.98,1.21,2.24,2.81,4.16,3.77,6.49,2.67,6.52,2.55,10.53,.44,16.71,2.45,.1,6.43-.68,8.05,1.43-.99,4.13-14.53,.73-18.06,1.03-3.96,.34-5.65,.19-9.49,1.62-1.1,.4-6.67,3.64-6.82,3.55-1.46-1.8,4.75-4.4,6.42-4.97-1.88-2.1-7.96-1.79-13.06-12.81-2.5-5.41-1.56-16.57,1.08-21.52l-14.78,4.47c.25-7.8,16.53-9.74,22.25-9.7,13.93,.1,20.71,7.89,23.62,8.65,3.27-8.88,.93-13.9,3.4-20.73,.83,5.78,3.25,9.86,1.65,16.32-1.8,7.27-7.61,4.43-13.19,3.49h0Zm-52.94-21.1c2.84-.86,8.84,.76,11.44,2.02-2.43,.19-4.01,1.15-6.57,1.18-1.85,.02-5.45-.84-4.87-3.2h0Zm15.75,8.73c1.47-5.1,16.95-12.68,22.98-12.25,5.96,.43,22.33,6.75,20.75,14.63-.79,.11-15.9-10-21.13-10.43-9.14-.75-20.41,8.99-22.6,8.05h0Zm-3.62,2.96c.54-11.78,14.99-20.72,25.34-21.09,8.09-.29,10.93,1.05,17.53,5.31,4.65,3,10.42,9.41,6.26,15.44-1.64-7.78-1.59-8.12-8.28-12.32-5.67-3.56-9.5-4.47-16.22-4.13-13.3,.68-20.57,14.16-24.63,16.8Z"/>
  <path class="cls-10" d="M514.64,274.95c-1.29,.13-28.52,17.72-38.21,21.63,3.46-1.33,9.49-5.2,12.82-7.3,10.89-6.85,29.41-17.01,38-23.46-4.03,2.99-8.12,5.55-11.86,8.86-10.16,9.01-24.45,21.15-35.55,27.76,2.35-1.36,14.3-11.06,17.46-13.52,2.84-2.22,16.65-11.6,17.34-13.97h0Zm1.3-1.02c-.98,.47-.83,.22-1.25,.98,.47-.15,1.18-.38,1.25-.98h0ZM201.02,104.73l-.34,.27-15.64,3.33c27.4-4.7,32.87,.04,57.88-1.65,6.53-.44,57.25-2.92,59.42-1.56l.64-.03c9.53,.15,18.91,.64,28.33,1.38,7.85,.61,20.11,3.13,27.01,3.1l-7.07-4.31c4.74,.65,5.52,2.75,8.84,4.79,23.18,4.03,45.54,10.8,67.11,20.46l-.18,.06-29.01-6.55-4.1,7.47c11.4,2.42,39.08,14.28,47.44,22.34,2.12-1.2,7.95-9.41,19.87-11.29-1.83,.47-7.57,2.66-9.32,3.79-2.45,1.58,1.14,.9-1.35,1.37-.76,.14-.05-.5-1.07,.36-.96,.81-6.5,3.18-7.08,6.47,4.27,4.66,10.51,9.03,15.15,14.17,2.96,3.28,11.2,13.2,12.38,17.08l1.65-1.09-.86,2.63c.74-.47,1.61-1.28,1.89-2.33,.37-1.4-1.18,.1,.31-1.04,5.62-4.29,9.81-6.96,17.21-6.51-5.24,1.38-14.77,3.06-17.28,8.84l-.32,.3-.3,.33,.3-.33,.32-.3c4.55-.71,6.06-2.02,11.56-1.73,4.01,.2,6.92,1.4,10.64,2.38-7.47,.72-15.51,3.22-22.49,3.67l-.24-.41,.24,.41,6.71,17.62c9.67-2.83,13.65-3.61,24.11-2.93-4.47-.95-11.43,1.67-14.16,5.41-3.64,4.98-5.02,9.67-4.53,16.22l1.18-.76-.77-.98c1.09-1.34,1.38-1.05,2.96-.98,.61,1.06-.71-.44,5.21,.79,2.05,.42,4.05,.88,6.11,1.3,4.23,.86,8.97,1.78,13.18,2.11-1.82,.31-19.34-2.25-24.9-2.29,1.45,1.64,10.66,4.94,13.51,6.52-2.3-.82-4.72-2.1-7.08-3-1.71-.65-6.41-1.91-7.37-3.17-2.2,1.74-2.49,3.6-2.53,6.44,2.91,.3,5.79,.61,8.36,2.15,3.46,2.07,3.24,4.49,5,5.93,3.47-.89,15.35,5.1,8.7,9.43-1.81,1.18-17.31-.04-20.95,.23,2.83,2.35,9.23,3.53,13.96,7.95,4.64,4.33,7.05,11.84-2.07,11.45-5.41-.23-12.49-2.55-18.25-3.36-6.48-.92-14.18-1.37-20.7-.93,4.28,3.22,21.13,14.57,12.6,21.21-3.41,2.66-10.96-.7-15.22-1.41-6.11-1.03-12.28-1.13-18.45-1.02,2.53,11.64-16.91,7.76-24.89,8.24-4.24,.26-27.5,4.5-29.23,3.01l.34-.33,.37-.31,.37-.31,.36-.43-.36,.43-.37,.31-.37,.31-.34,.33-1.77,1.26c-.19,8.32-1.16,15.26-8.09,19.98,3.88,21.48,5.61,15.4-2,36.61,26.53-1.24,62.95-9.87,89.32-17.8,4.55-1.37,8.65-3.17,13.05-4.89,5.56-2.18,9.1-1.85,10.27-7.92l-.22,3.5c2.75-.53,13.79-7.65,17.4-9.49,22.05-11.26,36.54-37.62,42.69-61.23,2.95-11.32,3.03-14.89,.78-26.17-1.66-8.31-16.57-32.11-22.39-38.86-12.37-14.36-33.15-31.16-49.16-42.08-10.49-7.16-10.12-5.38-21.43-1.42l11.98-4c-8.6-4.12-16.32-8.93-25.33-12.71-8.8-3.69-18.17-7.2-27.14-10.44-28.13-10.17-63.55-17.09-93.51-19.18-11.67-.82-24.31-.27-36.44-.91-22.98-1.21-48.71,.05-71.53,3.13l3.03,2.49c-2.08-.99-2.36-2.45-4.96-2.14-2.16,.26-4.46,.99-6.61,1.25h0ZM497.14,241.44l.38-.13-.38,.13-.57-.32,.57,.32h0Zm-132.12-123.91l32.86,6.2-4.45,7.26-25.99-6.04-2.43-7.42h0Zm-110.87-4.52l8.11-1.33,44.56,.05c8.22,1.24,20.26,.92,29.26,1.78,8.71,.84,19.84,3.31,27.9,3.65l3.09,7.67c-39.07-5.61-57-6.98-95.51-5.1-10.01,.49-22.07,2.3-31.67,2.26l48.14-5.81c-17.57,.09-33.35,.38-50.84,2.66-14.33,1.86-32.28,2.48-45.5,7.83,8.66-6.99,28.6-9.02,39.64-10.25,1.89,.96,13.25,.02,16.11-.24,5.77-.53,8.3-.83,13.54-3.09l-4.39,.3-2.41-.37h0Zm247.1,98.06c6.9,1.58,32.42,8.93,33.05,17.42-1.48-3.97-27.87-15.4-33.05-17.42h0Zm-49.07-57.29c5.39-.23,13.3,7.07,15.58,11.1-3.35-1.33-15.71-6.23-15.58-11.1Z"/>
  <path class="cls-10" d="M70.29,239.2c3.4,1.38,4.85,5.82,3.49,9.45-1.13,3.04-3.95,5.33-5,8.23,2.91,4.24,18.58,5.03,23.84,6.95,4.49,1.64,5.82,6.47,1.26,8.64-5.33,2.53-11.98,1.46-13.06,2.44,15.71,7.35,26.4,5.75,41.75,9.61,13.9,3.49,27.02,6.62,40.74,10.95,15.66,4.94,27.92,5.71,43.88,7.67,7.56,.93,24.95,3.91,32.47,6.37,2.5,.82,11.29,1.91,10.7,1.98-10.52,.32-16.08,.99-26.92-.17-8.67-.93-17.35-1.61-26.03-2.61-17.36-2.01-29.62-5.74-46.09-10.96-14.56-4.62-29.19-8.36-43.57-13.58-7.28-2.64-14.7-4.31-22.06-6.68-4.22-1.36-25.42-5.2-7.86-7.79-5.07-2.39-11.53-.46-16.61-6.76-5.49-6.82,.7-11.4,3.02-16.34-14.6-8.26-9.91-8.49-16.38-14.39,.2,10.22,3.93,15.9,6.68,24.43-2.06-3.7-8.93-21.87-6.59-25.07l-.06-7.45-.35-2.21-.31,2.11,.18,7.67-.11-1.44c-3.16-3.3-3.76-14.37-3.01-18.94,1.17-7.08,3.44-9.57,7.81-14.47l-1.78,5.11,2.87-5.95,.09-.1,.44-.44,1.03-.34,2.06-4.69-.33-.19-2.75,5.23,2.62-6.99c-5.74,3.08-19.81,23.68-21.51,30.47l.21,2.4c.34,.61,.9,9.27,1.26,11.21,1.68,9.21,5.12,19.25,8.33,28.03l1.9-3.72c-1.44,6.96-1.68,4.96,1,11.52,2.5,6.12,10.91,24.39,15.14,27.06l2.5-9.31c-1.87,10.62-3.53,9.38,4.24,16.8,12.51,11.94,29.16,20.71,45.19,26.12,24.04,8.11,50.86,16.2,75.97,18.93,28,3.04,60.36,6.56,88.32,6.22,15.75-.19,30.43,.4,46.34-.31,7.56-.34,14.56-.86,22.08-1.49,6.22-.52,9.54-7.08,11.57-12.58-17.91,.22-35.19,.2-53.13-.35-13.54-.41-24-1.74-37.08-3.17l-7.64-1.21-1.05-.83c16.19,1.5,32.74,2.32,49,3.51,15.54,1.13,34.85,2.87,50.19,2.01,1.31-6.82,2.38-9.44,.17-16.59-6.91,2.06-16.82,2.68-24.37,3.34-4.36,.38-8.66,1.14-13.01,1.45-3.71,.26-10.4-.07-13.59,.91l45.65,2.2c-7.48,2.24-34.79,1.9-43.58,1.58-6.76-.25-14.08-1.04-20.79-2.02-2.56-.38-18.7-3.92-18.61-4.05l26.87,1.73c-2.56-1.6-13.04-2.13-17.09-2.52-3.78-.37-2.2,.32-2.19-.29l-39.43-5.27,40.12,2.92c-2.73-2.44-24.08-5.46-28.51-5.51l21.24,2.22c-1.91-1.44-4.42-2.67-6.04-4.29-6.02-6.03,2.63-5.85-21.16-8.29-16.13-1.65-16.01,.4-30.69-8.54-2.1-1.28-11.13-7.87-12.15-8.01-4.69-.62-13.32,.16-19.11-.34-11.02-.94-22.21-2.92-32.77-6.31-17.47-5.6-39.07-13.58-53.04-25.95-6.89-6.1-14.04-12.47-19.86-19.67-2.83-3.51-5.61-8.37-7.23-12.61-1.32-3.46-3.98-17.18-4.12-15.98-.33,7.3,1.92,22.57,4.37,29.34h0Zm143.32,89.4c-.65-.42-49.17-11.86-56.41-16.94,8.68,2.15,17.93,5.74,26.87,8.12,9.17,2.44,18.34,4.75,27.59,6.84,11.27,2.55,19.14,3.22,30.53,4.21l31.24,3.37-14.96,.63c-.26,.15-31.62-1.28-34.96-1.47-11.08-.64-19.88-1.59-29.93-6.48l20.03,1.72Z"/>
  <path class="cls-11" d="M207.79,363.55c3.17,6.95,5.26,14.78,8.15,21.97,5.65,14.07,10.63,16.4,11.64,18.52-9.5-2.69-20.91-31.71-19.79-40.49h0Zm65.38,40.2c-8.6-7.36-14.47-19.99-15.33-31.84,4.14,3.47,8.78,26.54,16.38,32.13,5.4-4.89,8.94-9.38,15.18-14.47,13.35-10.88,51.9-25.49,56.24-32.77-38.96,4.62-87.9-.6-127.41-3.73-10-.79-20.48-1.78-30.39-3.28-9.1-1.38-18.2-4.26-27.47-5.99-18.96-3.55-35.04-7.96-53.39-13.81-.59,9.7,1.58,19.89,3.81,29.29,2.71,11.39,3.24,14.6,13.78,19.03,7.98,3.36,15.44,6.54,23.85,8.64l24.48,7.07,13.36,3.78c14.7,3.56,34.68,7.02,49.34,7.01,4.25,0,36.67,.42,37.56-1.06Z"/>
  <path class="cls-10" d="M369.12,184.9c9.22,8.54,8.52,11.65,13.44,22.68,3.04,6.82,3.56,5.44,11.32,6.34,5.27,.61,11.49,.13,16.7-.93,8.7-1.76,19.74-4.16,27.91-7.52,4.8-1.97,20.17-10.68,18-17.3-3.24-9.9-27.39-29.18-36.15-35.46-10.56-7.57-24.1-13.76-36.59-16.98-7.31-1.88-6.89-2.31-14.23,.35,7.92,.64,21.58,9.13,25.42,9.58l.05-.43-36.38-4.92c-9.86,4.27-16.39,10.88-21.92,19.72,1.53-4.22,5.45-8.44,8.49-11.3,3.75-3.54,8.96-5.84,11.82-8.36l-36.47-3.64-.3,.1-8.3,6.61,7.38-6.29-23.34-1.81-6.11,7.6,5.81-7.65-13.77-.9c1.44-.6,15-2.74,16.88-2.67l7.36-6.05c-11.93-1.34-58.14,1.03-70.27,3.5l20.46,4.03c20.49,4.44,35.3,11.61,54.56,18.5,10.98,3.93,26.03,9.65,37.14,11.91,5.49,1.11,15.12,4.15,20.44,3.54,.2-.02,16.13-5.66,18.22-6.34,.23-4.37-1.89-4.65-3.69-7.69,3.76,.87,6.21,3.16,7.45,6.91l4.21,.02c.27-4.83-1.99-6.4-4.68-9.3,5.37,1.59,15.88,9.33,11.87,15.9-7.26,11.92-10.41,5.64-19.62,9.24,2.46-.02,10.07-.28,11.99,.33,2.59,.83,5.97,4.35,7.65,4.93l-6.84-5.19c5.58-.28,12.24-.25,17.44-2.15,3.3-1.2,10.57-5.06,10.13-9.17-.61-5.7-15.76-17.08-21-18.59,9.75,1.83,33.33,13.1,20.59,25.41l-1.2,6.87c-1.03-.12-6.58-3.87-7.89-4.69l7.09,5.05c-2,3.14-9.89,5.84-14.4,6.08l-.55-.24c-3.7,2.42-29.85,.03-36.12,.38h0Zm-69.26-53.6c3.28-6.72,12.02-5.57,17.96-5.11,3.71,.29,19.73,.66,21.65,1.98l-9.18,3.27c-2.69-2.05-25.34,.1-30.44-.14h0Zm32.36-.25c4.42-4.34,16.51-2.12,22.13-1.31,3.67,.53,19.87,2.74,21.79,4.42l-7.41,1.72c-3.7-2.85-30.33-4.12-36.51-4.83h0Zm-.48-.11l-.48,.33,.48-.33h0Zm-.98,.26l-.32,.3,.32-.3h0Zm-31.8,.72l.86-.66-.86,.66-.36,.31-.3,.38-.34,.35-.32,.36-.32,.36-.33,.35-.39,.39,.15-.28,.24-.11,.06-.24,.27-.1,.09-.25,.23-.11,.08-.26,.24-.1,.09-.23,.25-.12,.1-.28,.21-.1,.09-.21,.28-.1Z"/>
  <path class="cls-11" d="M417.46,233.07c-.16,6.92-3.23,15.61-7.29,21.07-2.16,2.91-11.07,13.44-13.8,14.5,2.81-4.37,18.49-12.94,21.09-35.57h0Zm-3.74,26.71l-1.69,2.49,1.93-2.14-.24-.34h0Zm32.91-25.26c.32,7.13,.36,18.76-5.56,23.43,1.9-3.96,3.19-4.73,4.45-9.97,1.02-4.25,1.1-9.07,1.11-13.46h0Zm13.73-17.63l.57,1.9-.57-1.9h0Zm-73.97,.92c5.52,32.43-5.23,32.19-7.86,41.44,6.15,4.06,6.42,7.55,10.54,12.18l5.56-1.11c1.53,.1,9.39-1.22,10.75-1.75,2.4-.92,4.57-5.3,6.57-6.38l-5.24,6.1c7.72-1.61,8.04-.13,12.98-6.79,4.69-6.32,3.45-8.27,5.63-14.3,0,11.12-4.73,12.61-9.81,19.4,11.21-2.44,24.76-6.73,34.63-12.46,13.38-7.77,13.07-21.28,10.79-35.29,3.53,7.83,2.48,19.37-.03,27.39,3.23-1.91,6.09-6.08,8.37-9.08,3.8-5,2.89-8.7,2.01-14.5-1.29-8.55-5.44-18.44-8.8-26.45-2.31,1.52-4.29,6.87-13.53,11.35-4.7,2.27-12.85,5.11-17.92,6.79-11.38,3.77-32.83,4.94-44.65,3.45Z"/>
  <path class="cls-6" d="M382.22,175.88l-22.53-2c-12.97-.96-44.44-11.11-57.52-15.98-8.89-3.31-17.74-7.14-26.58-10.35-7.17-2.6-22.26-5.67-27.83-8.65l-2.42-.58-17.13-2.72c-1.84,.68-20.29,1.85-25.29,2.89-4.62,.96-16.43,4.94-20.74,7-9.99,4.78-25.06,18.46-25.87,30.48v4.57s6.53,10.42,6.53,10.42c.02-.98-1.03-3.17-1.42-4.18l6.33-1.46c-.81,9.1,8.28,3.96,13.31,3.9-5.69,8.53,11.99,9.34,16.48,9.97,8.78,1.22,17.4,1.48,25.79,2.59-1.94-.96-3.87-3.38-6.8-4.8-11.19-5.43-18.05-4.44-30.16-5.34,.45-1.2,11.35-9.5-2.14-9.55,4.12-3.03,13.8-5.64,11.88-11.79-2.09-6.66-12.89-1.22-17.36-.19l19.26-12.23c-10.74-4.9-17.84,2.37-20.66,.94,9.73-8.19,27.12-15.83,39.59-15.15,15.58,.84,31.43,3.9,46.49,8.07,13.74,3.8,25.88,10.39,39.01,15.86,9.5,3.95,32.21,11.68,41.89,12.83,5.71-.55,6.92-2.91,14.1-1.28,4.91,1.11,8.55,5.16,10.69,5.72,6.26-.35,32.42,2.04,36.12-.38l.55,.24c4.51-.24,12.39-2.94,14.4-6.08l-7.09-5.05c1.31,.81,6.86,4.57,7.89,4.69l1.2-6.87c12.73-12.31-10.85-23.57-20.59-25.41,5.24,1.51,20.38,12.89,21,18.59,.44,4.12-6.83,7.97-10.13,9.17-5.2,1.9-11.86,1.87-17.44,2.15l6.84,5.19c-1.67-.58-5.06-4.09-7.65-4.93-1.92-.62-9.53-.35-11.99-.33Z"/>
  <path class="cls-10" d="M154.97,140.67c-2.53,.54-16.16-3.23-17.79-5.16-2.2-2.61-.72-4.07,2.1-4.39l-2.29-.02c3.32-3.64,14.15-2.63,19.06-3.3l-6.27-3.53c-1.49-5.56,7.97-5.79,11.53-6.48,4.19-.82,11-1.78,14.79-3.19-1.04-2.26-.33-2.81,1.05-4.3l-38.14,11.21c-4.42,.81-16.86,11.02-19.04,14.71l16.4-4.79c-5.02,1.52-16.29,3.43-19.32,7.85-3.53,5.15-7.16,12.73-9.51,18.58-6.67,16.58-7.76,30.68-5.68,48.37,1.46,12.43,9.43,29.18,18.27,37.89,4.28,4.21,10.39,9.01,15.16,12.75,5.46,4.27,11.64,6.53,17.23,9.95-9.5-7.09-14.49-9.07-20.87-20.18l12.63,9.19-13.68-18.1,20.67,17.63c.05-.12-9.27-10.16-10.12-11.11-2.82-3.16-6.69-8.94-8.86-12.66-6.66-11.44-8.12-22.31-7.69-35.54,.41-12.74,3.45-22.2,9.75-33.05,6.91-11.88,11.06-13.91,20.6-22.31Z"/>
  <path class="cls-11" d="M162.14,148.38l.37-.33,.3-.38,.31-.38,.31-.37,.32-.37,.33-.35,.33-.35,.35-.33,.36-.32,.35-.33,.35-.33,.37-.31,.36-.32,.36-.32,1.2-1.83c-5.09,1.43-13.82,6.87-17.2,10.96-2.61,3.15-11.16,13.15-12.22,16.27,.86-.36,7.07-3.18,7.46-2.93,.1,.12-5.94,3.42-6.88,4.06-2.62,1.79-3.31,3.8-4.07,6.92-3.36,13.88-4.98,44.88,7.07,55.48-2.65-10.38-.25-23.37,5.25-31.71-3.41,11.98-5.8,18.66-2.45,31.74,1.88,7.34,2.58,6.14,7.32,11.16,1.97,2.09,7.88,7.45,10.26,8.5-1.17-4.73-4.78-8.47-4.53-19.12,3.97,21.98,3.54,22.51,25.8,29.05-2.7-5.96-5.71-20.46-1.98-26.1-.27,6.51,.45,12.44,2.05,18.7,2.09,8.16,3.13,8.98,11.36,9.16-.75-18.33,1.73-18.95,6.27-34.64-13.98-3.09-34.44-14.48-42.12-27.12-8.9-14.65-10.79-41.12,2.62-53.76Z"/>
  <path class="cls-11" d="M523.55,302.48c-7.29,8.12-24.84,21.92-34.67,27.58-8.87,5.11-5.83,2.03-8.81,12.05-3.6,12.1-7.23,17.8-13.42,28.27,10.28-2.54,27.52-10.43,36.76-15.99,11.24-6.76,18.75-16.12,26.98-26.19,7.97-9.75,14.66-22.37,19.16-34.22,4.61-12.16,5.96-34.62,.47-46.29-5.59,20.78-11.79,38.45-26.47,54.79Z"/>
  <path class="cls-11" d="M103.98,244.65l1.45,1.02-1.45-1.02h0Zm2.14-.85c-.63-3.44,.23,1.25,0,0h0Zm-24.6-42.57c.45-2.92-.23,1.47,0,0h0Zm1.53-20.39l-1.04,1.59,1.04-1.59h0Zm4.3-5.69l-1.44,1.51,1.44-1.51h0Zm5.63-5.35c.59-1.28-.27,.58,0,0h0Zm-4.45-11.8s.13,.06,.13,.12c0,.03,.06,.05,.05,.05-.01-.01-.72,.39-.19-.18h0Zm12.1-14.17l3.92-2.73-3.92,2.73h0Zm-22.18,25.36c5.65-5.24,14.17-22,22.16-25.38l-12.16,14.56c-1.26,5.67-17.92,18.04-16.29,40.08,1.92-4.18,2.17-7.75,5.34-12.42,1.31-1.92,7.38-9.75,8.31-8.86l-2.49,3.53c-.03-.7,1.06-1.86-.05-.82-2.77,2.59-7.35,14.2-8.45,17.96-1.07,3.7-1.9,8.65-2.28,12.49-.58,5.82,2.17,8.68,2.37,12.17,.8-7.53,1.9-14.86,6.57-20.92-1.22,5.83-4.33,11.6-5.47,18.57-.88,5.43,3.14,13.21,7.54,16.19l-.86-20.22c1.03,30.28,6.79,24.42,13.44,33.01-.08-3.28-1.36-7.79-1.47-11.91-.13-4.61,.34-8.62,.42-13.09,.23,9.48,.23,15.17,2.41,24.55,1.01,4.34,10.1,10.89,14.23,12.44l-6.09-14.62,.96-2.4c.7,5.8,9.83,9.48,14.33,12.31,5.54,3.49,10.96,6.9,16.58,10.25,12.26,7.32,24.92,12.56,39.08,14.44l-18.05-7.07c-5.59-2.61-11.08-5.57-16.41-8.69-6.57-3.85-23.76-16.16-28.92-21.4-7.39-7.5-14.88-23.15-17-33.53-4.53-22.21-3.53-22.39,.81-43.92l-3.4,2.99c.74-1.81,2.46-2.62,3.61-4.27,.96-1.38,1.64-3.97,2.25-5.66,6.38-17.72,10.79-18.23,17.9-29.6-12.73,6.27-34.21,25.47-38.95,39.22Z"/>
  <path class="cls-11" d="M354.09,394.75c12.38-.57,29.02-3.55,41.16-6.49,6.13-1.48,5.69,.53,10.61-13.66,2.12-6.1,4.64-12.36,5.49-18.73-11.16,1.99-31.53,4.97-43.14,5.08-4.78,.05-3.12,.81-6.48,3.12-3.72,2.56-7.41,5.54-11.11,7.93-9.42,6.06-43.62,20.79-48.21,28.45l47.88-5.4c1.81-1.37,9.66-24.49,9.01-27.18,.51,11.27-2.1,16.9-5.21,26.87Z"/>
  <path class="cls-6" d="M413.5,283.98c-7.16-.5-21.08,3.47-26.39,7.76l-2.59,2.64-.36,.43-.37,.31-.37,.31-.34,.33c1.73,1.49,24.99-2.76,29.23-3.01,7.98-.49,27.42,3.4,24.89-8.24,6.18-.11,12.34-.01,18.45,1.02,4.25,.72,11.8,4.07,15.22,1.41,8.53-6.64-8.31-17.99-12.6-21.21,6.52-.44,14.21,.01,20.7,.93,5.75,.81,12.84,3.13,18.25,3.36,9.12,.39,6.71-7.13,2.07-11.45-4.73-4.41-11.13-5.59-13.96-7.95,3.64-.27,19.15,.95,20.95-.23,6.65-4.33-5.23-10.32-8.7-9.43l-.05,.34-.38,.13-.57-.32c-1.26-.95-6.71-1.74-8.52-2.05-4.19-.72-5.73-1.36-8.42,1.87-3.83,4.62-8.14,7.08-11.68,10.75,1.93,4.27,23.39,7.03,28.63,12.93-5.12-.61-12.55-3.21-18.22-4.19-6.72-1.15-13.3-1.93-20.13-2.05l-15.94,6.96c-2.73,3.41,8.47,7.47,10.23,9.25l-17.31-.02,2.08,1.3-4.21-1.29c-7.34,.29-13.74,.35-14.34,8.77l-3.67,.56,3.43,3.24-5.01-3.19Z"/>
  <path class="cls-11" d="M403.84,386.05c6.38-.95,43.38-9.97,51.05-12.1,4.69-1.3,8.15-1.1,10.53-5.44,1.95-3.56,3.63-7.05,5.41-10.69,2.49-5.07,8.06-17.52,9.19-22.64-4.57,1.4-10.13,4.8-15.76,6.52-5.89,1.8-11.74,2.68-17.57,4.37-5.69,1.64-11.35,3.58-17.05,5.27-5.3,1.58-12.83,2.76-17.48,4.44-.63,1.25-2.26,13-3.12,16.23-1.45,5.48-3.62,9.33-5.2,14.04Z"/>
  <path class="cls-6" d="M68.42,237.77c-19.16-8.82-16.81-29.53-8.89-46l-3.21,2.1c-3.8,4-8.93,24.03-8.41,30.25l.06,7.45-.09,.64c6.47,5.9,1.78,6.13,16.38,14.39-2.32,4.94-8.51,9.52-3.02,16.34,5.08,6.3,11.54,4.37,16.61,6.76-17.55,2.58,3.64,6.43,7.86,7.79,7.36,2.37,14.78,4.04,22.06,6.68,14.38,5.22,29.01,8.97,43.57,13.58,16.47,5.22,28.73,8.95,46.09,10.96,8.68,1,17.36,1.68,26.03,2.61,10.83,1.16,16.4,.49,26.92,.17,.59-.07-8.2-1.16-10.7-1.98-7.52-2.46-24.91-5.44-32.47-6.37-15.96-1.97-28.22-2.73-43.88-7.67-13.72-4.33-26.84-7.46-40.74-10.95-15.36-3.86-26.05-2.26-41.75-9.61,1.08-.98,7.73,.1,13.06-2.44,4.55-2.16,3.22-7-1.26-8.64-5.25-1.92-20.93-2.7-23.84-6.95,1.06-2.9,3.87-5.19,5-8.23,1.35-3.63-.09-8.08-3.49-9.45l1.43,4.37-3.29-5.8h0Zm-13.65-42.65c-3.06,9.6-6.89,15.79-7.21,26.79l-.31,2.11,.07,6.23c-3.16-3.3-3.76-14.37-3.01-18.94,1.17-7.08,3.44-9.57,7.81-14.47l-1.78,5.11,2.87-5.95,.09-.1,.44-.44,1.03-.34Z"/>
  <path class="cls-6" d="M154.97,140.67l7.74-4.11c-2.79-1.99-11.33-.72-14.28-3.3,3.31-.53,13.71-2.28,15.9-4.37-.05-2.3-1.98-2.77-3.53-4.07l4.93-.91c10.95-15.11,53.41-15.24,70.28-14.64l-17.69,1.87,6.72,.31-17.79,3.22,16.14,1.33,30.76-3,8.11-1.33,44.56,.05c8.22,1.24,20.26,.92,29.26,1.78,8.71,.84,19.84,3.31,27.9,3.65l-5.66-7.59c-6.9,.03-19.16-2.49-27.01-3.1-9.42-.73-18.8-1.22-28.33-1.38l-.64,.03c-2.16-1.35-52.89,1.12-59.42,1.56-25,1.69-30.47-3.05-57.88,1.65l-7.89,1.96c-1.38,1.49-2.1,2.04-1.05,4.3-3.79,1.41-10.6,2.37-14.79,3.19-3.56,.69-13.02,.92-11.53,6.48l6.27,3.53c-4.91,.68-15.74-.33-19.06,3.3l2.29,.02c-2.82,.32-4.3,1.78-2.1,4.39,1.63,1.94,15.26,5.7,17.79,5.16Z"/>
  <path class="cls-11" d="M63.36,300.87c-.39,8.82,.93,19.22,2.91,27.82,2.57,11.15,2.53,11.77,10.7,19.43,7.64,7.16,26.09,21.39,35.63,24.39-8.76-11.93-6.46-28.85-6.34-42.78-7.09-2.54-17.07-8.37-23.56-12.46-9.28-5.84-16.04-14.12-19.35-16.41Z"/>
  <path class="cls-5" d="M259.74,243.57c-.26-4.51-1.07-7.89-1.63-12.23-.67-5.18-1.48-5.62-4.39-8.99,3.21,.21,8.42,2.88,10.67,5.18l-3.12,12.27c-.3,1.24-.6,2.88-1.52,3.76h0Zm5.13-19.65c5.58,.94,11.39,3.78,13.19-3.49,1.6-6.46-.82-10.54-1.65-16.32-2.48,6.84-.13,11.86-3.4,20.73-2.91-.76-9.69-8.55-23.62-8.65-5.73-.04-22,1.9-22.25,9.7l14.78-4.47c-2.65,4.95-3.59,16.11-1.08,21.52,5.1,11.02,11.17,10.71,13.06,12.81-1.67,.57-7.88,3.16-6.42,4.97,.15,.09,5.72-3.14,6.82-3.55,3.84-1.42,5.53-1.28,9.49-1.62,3.53-.3,17.07,3.09,18.06-1.03-1.62-2.11-5.6-1.33-8.05-1.43,2.11-6.18,2.23-10.19-.44-16.71-.95-2.33-2.56-4.25-3.77-6.49-1.9-3.51-3.26-3.83-4.7-5.98Z"/>
  <path class="cls-10" d="M363.32,206.22c.75,1.8,7.29,5.44,5.38,8.62-2.53,1.06-4.51-2.31-5.94-3.83-3.2-3.39-3.98-1.49-6.49,.02,3.86,4.84,6.19,12.55,6.17,18.91-.02,8.34-3.33,11.76-7.63,17.68l19.51,9.1c.09-.09,4.82-12.66,5.14-13.83,4.51-16.67-1.5-42.75-16.14-36.68Z"/>
  <path class="cls-10" d="M20.41,225.91l.5-.2-3.55,11.66,.22,4.88,5.35-8.26c-.85,3.23-3.52,7.34-4.65,11.1-.61,2.01,.41,12.01,1.03,14.19l2.32-7.17c-.82,7.85-1.77,17.09-3.02,24.79-2,12.23-2.67,10.68,4.03,20.98,5.16,7.94,19.34,24.58,27.81,27.92-3.35-8.08-14.45-20.61-21.2-39.91-4.16-11.9-6.01-27.43-5.35-40.17,.23-4.47,1.33-10.4,1.21-14.52l-1.97,2.9c1.77-4.31,1.87-1.1,2.17-7.24,.15-3.01,.68-5.92,.92-8.89l-5.8,7.92Z"/>
  <path class="cls-7" d="M352.81,357.01l-.41,.27-.25,.28c-11.69,9.65-22.97,14.21-34.67,19.62-7.73,3.57-15.75,7.89-23.83,12.95-30.96,19.39-31.71,49.64-3.41,46.94l-3.57-1.69-3.32-1.26,1.81,2.4c-8.04,1.39-11.38-10.98-8.98-18.03,3.65-10.71,36.29-39.37,47.36-40.75-10.41,5.99-12.1,7.2-14.98,9.97,2.39-.04,4.95-2.31,16.3-8.66,6.17-2.77,10.96-3.75,16.96-7.44,7.13-4.38,22.77-15.1,25.66-23.14-2.77,4.7-6.81,9.74-12.27,11.29l3.5-3.61c.93-1,2.02-2.22,2.66-3.52-2.44,2.25-5.48,3.23-8.57,4.37Z"/>
  <path class="cls-11" d="M64.62,334.43c-1.55-6.65-3.2-11.17-3.62-18.3-.22-3.79-.19-7.19,.18-10.97,.48-4.92,1.83-4.69-1.15-8.45-8.63-10.87-13.74-27.06-15.54-29.17-1.39,10.48-2.96,30.7,1.8,40.22,3.42,6.84,13.2,21.2,18.33,26.67Z"/>
  <path class="cls-6" d="M326.55,215.4l.75,6.65c5.97,5.36,8.64,3.88,12.71-2.51,4.9-7.7,7.4-18.18,18.9-23.41,7.57-3.45,9.92,1.34,15.79,3.08-2.08-8.48-14.65-12.88-22.78-12.87-3.8,2.74-11.81,5.74-13.47,11.85-.94,3.48-6.9,16.91-5.47,19.26h3.73c-3.17,6.76-10.21,1.64-5.85-7.43-3.27,.98-3.17,4.12-4.31,5.39Z"/>
  <path class="cls-11" d="M35.06,221.34l-.21-2.4c-4.75,13.49-6.22,26.8-5.11,41.13,.67,8.64,5,29.81,10.44,36.3,.28-7.32-.8-12.82,.33-20.8,1.3-9.17,4.01-8.23,.77-17.31-2.91-8.14-5.8-17.66-6.44-26.37-.27-3.72,.46-7.51,.22-10.56Z"/>
  <path class="cls-10" d="M156.33,175.98c.81-12.03,15.87-25.71,25.87-30.48,4.31-2.06,16.11-6.04,20.74-7,5-1.04,23.45-2.21,25.29-2.89-17.85-2.14-43.6-1.83-60.1,6.15l-1.2,1.83-.36,.32-.36,.32-.37,.31-.35,.33-.35,.33-.36,.32-.35,.33-.33,.35-.33,.35-.32,.37-.31,.37-.31,.38-.3,.38-.37,.33,.37-.33,.3-.38,.31-.38,.31-.37,.32-.37,.33-.35,.33-.35,.35-.33,.36-.32,.35-.33,.35-.33,.37-.31,.36-.32,.36-.32,.67-.48c-2.23,4.66-6.29,9.37-8.5,13.9-2.19,4.51-4.1,14.36-2.76,18.99Z"/>
  <path class="cls-6" d="M320.52,136.74l36.47,3.64,11.73-4.51c-3.7-2.85-30.33-4.12-36.51-4.83l-.48-.11-.48,.33-.49-.07-.32,.3-9.92,5.25h0Zm9.78-5.3l-10.07,5.4-.92,.32-23.34-1.81,.64-.94,.39-.39,.33-.35,.32-.36,.32-.36,.34-.35,.3-.38,.36-.31,.86-.66,.04,.05c5.1,.24,27.75-1.91,30.44,.14Z"/>
  <path class="cls-5" d="M354.09,394.75c3.11-9.97,5.72-15.6,5.21-26.87,.65,2.69-7.2,25.81-9.01,27.18l-47.88,5.4c4.59-7.66,38.78-22.39,48.21-28.45,3.71-2.38,7.39-5.37,11.11-7.93,3.36-2.32,1.71-3.08,6.48-3.12,11.6-.11,31.98-3.09,43.14-5.08-.85,6.37-3.38,12.62-5.49,18.73-4.92,14.19-4.48,12.18-10.61,13.66-12.14,2.93-28.78,5.91-41.16,6.49h0Zm49.27-40.22c1.08-.64,2.8-.76,4.18-1.02l3.47-.64c1.66-.02,.24-.14,.92,.27-1.71,1.1-6.41,1.49-8.56,1.39h0Zm-296.38-24.54c-.59,9.7,1.58,19.89,3.81,29.29,2.71,11.39,3.24,14.6,13.78,19.03,7.98,3.36,15.44,6.54,23.85,8.64,7.79,1.95,17.15,5.67,24.48,7.07-1.63-1.8-4.01-3.66-6.04-6.19-5.04-6.29-9.94-14.82-7.23-23.05,3.83,16.35,10.14,29.02,26.62,33.01,14.7,3.56,34.68,7.02,49.34,7.01,4.25,0,36.67,.42,37.56-1.06-8.6-7.36-14.47-19.99-15.33-31.84,4.14,3.47,8.78,26.54,16.38,32.13,5.4-4.89,8.94-9.38,15.18-14.47,13.35-10.88,51.9-25.49,56.24-32.77-38.96,4.62-87.9-.6-127.41-3.73-10-.79-20.48-1.78-30.39-3.28-9.1-1.38-18.2-4.26-27.47-5.99-18.96-3.55-35.04-7.96-53.39-13.81h0Zm100.8,33.56c3.17,6.95,5.26,14.78,8.15,21.97,5.65,14.07,10.63,16.4,11.64,18.52-9.5-2.69-20.91-31.71-19.79-40.49h0Zm196.05,22.5c6.38-.95,43.38-9.97,51.05-12.1,4.69-1.3,8.15-1.1,10.53-5.44,1.95-3.56,3.63-7.05,5.41-10.69,2.49-5.07,8.06-17.52,9.19-22.64-4.57,1.4-10.13,4.8-15.76,6.52-5.89,1.8-11.74,2.68-17.57,4.37-5.69,1.64-11.35,3.58-17.05,5.27-5.3,1.58-12.83,2.76-17.48,4.44-.63,1.25-2.26,13-3.12,16.23-1.45,5.48-3.62,9.33-5.2,14.04h0ZM63.36,300.87c3.3,2.28,10.06,10.56,19.35,16.41,6.49,4.09,16.47,9.92,23.56,12.46-.12,13.93-2.42,30.85,6.34,42.78-9.54-3-27.99-17.24-35.63-24.39-8.18-7.66-8.14-8.28-10.7-19.43-1.98-8.6-3.3-19-2.91-27.82h0Zm304.19,2.79l-.22-.43-.35-.49-1.38-1.9-7.15-7.61c5.3,1.36,6.22,1.83,12.07,1.55,.1,4.22,2.94,6.98,.27,12.18l-.89,1.24-2.34-4.54h0Zm-22.1-13.11c-2.22-3.08-11.81,.22-13.97,1.85,6.83,1.41,12.48,1.05,17.48,7.25,3.58,4.44,8.1,8.6,11.02,13.55,2.93,4.96,5.12,14.05,4.79,19.83-.56,10.01-5.47,12.82-6.66,17.99l-.33,.35-.36,.35-.35,.35-.33,.35-.31,.19-3.63,4.39-.41,.27-.25,.28c-19.41,16.03-38.2,19.86-58.5,32.57-30.96,19.39-31.71,49.64-3.41,46.94l-3.57-1.69c-2.82-2.23-4.03-2.8-5.17-6.69-1.06-3.6-1.44-6.61-.2-10.17,.73-.39,.15-.29,.65-.03-.84,3.34-.15,3.62,2.32,5.3,6,4.08,17.82,4.76,20.3,3.07l-5.35-2.17c-1.22-1.24-2.1-1.46-3.38-3.12-.93-1.2-1.79-2.48-2.73-3.78-8.51-11.81,6.49-24.36,14.87-29.75l.4-.34,.46-.25c4.38-1.61,11.04-6.15,16.04-8.39,6.17-2.77,10.96-3.75,16.96-7.44,7.13-4.38,22.77-15.1,25.66-23.14,1.22-2.58,2.11-5.43,3.06-8.13,2.16-6.14,.2-20.98-4-27-6.77-9.69-9.95-17.1-21.09-22.79h0Zm-280.83,43.88c-1.55-6.65-3.2-11.17-3.62-18.3-.22-3.79-.19-7.19,.18-10.97,.48-4.92,1.83-4.69-1.15-8.45-8.63-10.87-13.74-27.06-15.54-29.17-1.39,10.48-2.96,30.7,1.8,40.22,3.42,6.84,13.2,21.2,18.33,26.67h0ZM15.68,258.69c-.18-3.4-.67-6.86,1.35-9.73,.53,3.32,.94,6.63,1.49,9.94,.9,5.52-4.92,9.19-2,28.35-1.38-4.57-4.84-9.41-5.97-15.35-.42-2.21,3.36-15.41,4.7-16.7l.43,3.49h0Zm1.03,7.59l-1.14-7.58,1.14,7.58h0Zm359.47,16.73c-1.62-1.57-.74-2.3,0-3.98,1.94,.24,1.73,.94,3.04,2.24,1.29,1.27,2.03,1.13,1.08,3.01-1.26,.51-3.1-.3-4.11-1.27h0ZM78.45,169.18c4.74-13.75,26.22-32.95,38.95-39.22-7.1,11.37-11.52,11.88-17.9,29.6-.61,1.69-1.28,4.28-2.25,5.66-1.15,1.65-2.87,2.46-3.61,4.27l3.4-2.99c-4.34,21.53-5.34,21.71-.81,43.92,2.12,10.38,9.61,26.03,17,33.53,5.16,5.24,22.35,17.55,28.92,21.4,5.33,3.12,10.82,6.09,16.41,8.69l18.05,7.07c-14.17-1.87-26.83-7.11-39.08-14.44-5.62-3.36-11.05-6.77-16.58-10.25-4.5-2.84-13.64-6.52-14.33-12.31l-.96,2.4,6.09,14.62c-4.13-1.55-13.22-8.1-14.23-12.44-2.18-9.38-2.18-15.06-2.41-24.55-.08,4.47-.55,8.47-.42,13.09,.12,4.12,1.39,8.63,1.47,11.91-6.65-8.59-12.41-2.73-13.44-33.01l.86,20.22c-4.4-2.98-8.42-10.77-7.54-16.19,1.13-6.97,4.25-12.74,5.47-18.57-4.68,6.05-5.77,13.39-6.57,20.92-.2-3.48-2.95-6.35-2.37-12.17,.38-3.84,1.2-8.8,2.28-12.49,1.09-3.76,5.68-15.38,8.45-17.96,1.11-1.04,.02,.13,.05,.82l2.49-3.53c-.93-.89-7.01,6.94-8.31,8.86-3.17,4.67-3.42,8.24-5.34,12.42-1.63-22.04,15.03-34.41,16.29-40.08l12.16-14.56c-7.99,3.38-16.5,20.15-22.16,25.38h0Zm14.53,.61c-.27,.58,.59-1.28,0,0h0Zm11.57-28.7l-3.92,2.73,3.92-2.73h0Zm-15.88,17.03c0-.06-.09-.17-.13-.12-.53,.57,.18,.17,.19,.18,0,0-.05-.03-.05-.05h0Zm-2.76,18.54l1.44-1.51-1.44,1.51h0Zm-3.89,5.77l1.04-1.59-1.04,1.59h0Zm-.48,18.8c.45-2.92-.23,1.47,0,0h0Zm23.91,44.44l-1.45-1.02,1.45,1.02h0Zm.7-1.87c.23,1.25-.63-3.44,0,0h0Zm276.95,51.98l-1.77,1.26c-.19,8.32-1.16,15.26-8.09,19.98,3.88,21.48,5.61,15.4-2,36.61,26.53-1.24,62.95-9.87,89.32-17.8,4.55-1.37,8.65-3.17,13.05-4.89,5.56-2.18,9.1-1.85,10.27-7.92l-.22,3.5c2.75-.53,13.79-7.65,17.4-9.49,9.82-5.02,21.73-16.83,27.25-26.63,6.01-10.7,9.35-20.43,12.55-30.31,2.95-9.12,6.12-18.26,3.68-30.47-1.66-8.31-16.57-32.11-22.39-38.86-12.37-14.36-33.15-31.16-49.16-42.08-10.49-7.16-10.12-5.38-21.43-1.42l11.98-4c-8.6-4.12-16.32-8.93-25.33-12.71-8.8-3.69-18.17-7.2-27.14-10.44-28.13-10.17-63.55-17.09-93.51-19.18-11.67-.82-24.31-.27-36.44-.91-22.98-1.21-48.71,.05-71.53,3.13l3.03,2.49c-2.08-.99-2.36-2.45-4.96-2.14-2.16,.26-4.46,.99-6.61,1.25l-.34,.27-15.64,3.33-7.89,1.96-38.14,11.21c-4.42,.81-16.86,11.02-19.04,14.71l16.4-4.79c-5.02,1.52-16.29,3.43-19.32,7.85-3.53,5.15-7.16,12.73-9.51,18.58-6.67,16.58-7.76,30.68-5.68,48.37,1.46,12.43,9.43,29.18,18.27,37.89,4.28,4.21,10.39,9.01,15.16,12.75,5.46,4.27,11.64,6.53,17.23,9.95-9.5-7.09-14.49-9.07-20.87-20.18l12.63,9.19-13.68-18.1,20.67,17.63c.05-.12-9.27-10.16-10.12-11.11-2.82-3.16-6.69-8.94-8.86-12.66-6.66-11.44-8.12-22.31-7.69-35.54,.41-12.74,3.45-22.2,9.75-33.05,6.91-11.88,11.06-13.91,20.6-22.31l7.74-4.11,6.01-2.13c.05,.1-.06,.02-.05,0,.18-.55,1.28-.83,2.02-1.14-1.45-1.11-3.48-1.29-4.21-3.07-.81-2.01-1.05-4.16-.76-6.31,10.95-15.11,53.41-15.24,70.28-14.64l-17.69,1.87,6.72,.31-17.79,3.22c-4.32,.56-10.85,2.38-15.04,3.74-4.21,1.37-10.48,2.61-10.39,8.48,1.02-.14,6.9-3.44,8.83-4.18,3.55-1.36,6.41-2.36,10.19-2.97,2.91-.48,21.56-3.11,22.56-3.73l30.76-3,2.41,.37c-3.3-.15-9.3,.91-12.81,1.36-4.07,.53-8.41,1.27-12.44,1.67-11.04,1.23-30.99,3.26-39.64,10.25,13.22-5.35,31.18-5.97,45.5-7.83,17.49-2.28,33.27-2.58,50.84-2.66l-48.14,5.81c9.6,.04,21.66-1.77,31.67-2.26,38.51-1.88,56.45-.5,95.51,5.1l-3.09-7.67-5.66-7.59-7.07-4.31c4.74,.65,5.52,2.75,8.84,4.79l4.93,7.49,2.43,7.42,25.99,6.04,4.45-7.26,.43-.73-.3,1-4.1,7.47c11.4,2.42,39.08,14.28,47.44,22.34,2.12-1.2,7.95-9.41,19.87-11.29-1.83,.47-7.57,2.66-9.32,3.79-2.45,1.58,1.14,.9-1.35,1.37-.76,.14-.05-.5-1.07,.36-.96,.81-6.5,3.18-7.08,6.47,4.27,4.66,10.51,9.03,15.15,14.17,2.96,3.28,11.2,13.2,12.38,17.08l1.65-1.09-.86,2.63c.74-.47,1.61-1.28,1.89-2.33,.37-1.4-1.18,.1,.31-1.04,5.62-4.29,9.81-6.96,17.21-6.51-5.24,1.38-14.77,3.06-17.28,8.84l-.32,.3-.3,.33c-.99,1.99-.65,1.46,.09,3.28l.24,.41,6.71,17.62c9.67-2.83,13.65-3.61,24.11-2.93-4.47-.95-11.43,1.67-14.16,5.41-3.64,4.98-5.02,9.67-4.53,16.22l1.18-.76,2.1-1.35-1.24,1.66c-2.2,1.74-2.49,3.6-2.53,6.44,2.91,.3,5.79,.61,8.36,2.15,3.46,2.07,3.24,4.49,5,5.93l-.05,.34-.38,.13-.57-.32c-1.26-.95-6.71-1.74-8.52-2.05-4.19-.72-5.73-1.36-8.42,1.87-3.83,4.62-8.14,7.08-11.68,10.75-1.23,.68-2.22,1.57-2.67,2.8,6.59,1.65,10.46,2.02,16.44,5.83-3.89-1.11-7.68-2.98-12.09-4.08-1.67-.42-4.91-1.57-6.33-.97-1.3,.54-4.25,2.29-5.07,3.12l-15.94,6.96-18.08,5.53,11,3.7,2.08,1.3-4.21-1.29c-8.09-5.84-26.66-.47-36.19,.54,1.74,1.57,7.18,2.59,9.84,3.77,3,1.33,5.69,3.18,8.36,5.02l3.43,3.24-5.01-3.19c-1.68-1.7-20.29-6.92-23.38-7.05-.05,4.7-.61,10.98-3.01,14.81l-2.59,2.64-.36,.43-.37,.31-.37,.31-.34,.33h0Zm166.95-48.08c5.49,11.67,4.13,34.13-.47,46.29-4.49,11.86-11.19,24.47-19.16,34.22-8.23,10.07-15.74,19.43-26.98,26.19-9.24,5.56-26.48,13.45-36.76,15.99,6.19-10.47,9.82-16.17,13.42-28.27,2.98-10.02-.06-6.95,8.81-12.05,9.83-5.66,27.37-19.46,34.67-27.58,14.68-16.34,20.88-34.01,26.47-54.79h0Zm-163.65-29.88c11.82,1.48,33.27,.32,44.65-3.45,5.07-1.68,13.22-4.52,17.92-6.79,9.25-4.48,11.22-9.83,13.53-11.35,3.35,8.01,7.5,17.9,8.8,26.45,.88,5.8,1.79,9.49-2.01,14.5-2.28,3-5.14,7.17-8.37,9.08,2.5-8.02,3.56-19.56,.03-27.39,2.29,14.01,2.59,27.52-10.79,35.29-9.87,5.73-23.42,10.02-34.63,12.46,5.08-6.79,9.81-8.28,9.81-19.4-2.18,6.03-.94,7.98-5.63,14.3-4.94,6.66-5.25,5.19-12.98,6.79l5.24-6.1c-2,1.09-4.18,5.46-6.57,6.38-1.35,.52-9.21,1.85-10.75,1.75l-5.56,1.11c-4.12-4.63-4.39-8.12-10.54-12.18,2.63-9.26,13.38-9.02,7.86-41.44h0Zm60.25,16.71c.32,7.13,.36,18.76-5.56,23.43,1.9-3.96,3.19-4.73,4.45-9.97,1.02-4.25,1.1-9.07,1.11-13.46h0Zm14.29-15.73l-.57-1.9,.57,1.9h0Zm-43.46,14.28c-.16,6.92-3.23,15.61-7.29,21.07-2.16,2.91-11.07,13.44-13.8,14.5,2.81-4.37,18.49-12.94,21.09-35.57h0Zm-5.44,29.2l1.69-2.49,.24,.34-1.93,2.14h0Zm-243.9-120.52c-5.09,1.43-13.82,6.87-17.2,10.96-2.61,3.15-11.16,13.15-12.22,16.27,.86-.36,7.07-3.18,7.46-2.93,.1,.12-5.94,3.42-6.88,4.06-2.62,1.79-3.31,3.8-4.07,6.92-3.36,13.88-4.98,44.88,7.07,55.48-2.65-10.38-.25-23.37,5.25-31.71-3.41,11.98-5.8,18.66-2.45,31.74,1.88,7.34,2.58,6.14,7.32,11.16,1.97,2.09,7.88,7.45,10.26,8.5-1.17-4.73-4.78-8.47-4.53-19.12,3.97,21.98,3.54,22.51,25.8,29.05-2.7-5.96-5.71-20.46-1.98-26.1-.27,6.51,.45,12.44,2.05,18.7,2.09,8.16,3.13,8.98,11.36,9.16-.75-18.33,1.73-18.95,6.27-34.64-13.98-3.09-34.44-14.48-42.12-27.12-8.9-14.65-10.79-41.12,2.62-53.76l.37-.33,.3-.38,.31-.38,.31-.37,.32-.37,.33-.35,.33-.35,.35-.33,.36-.32,.35-.33,.35-.33,.37-.31,.36-.32,.36-.32,.67-.48c-2.23,4.66-6.29,9.37-8.5,13.9-2.19,4.51-4.1,14.36-2.76,18.99v4.57c1.06,15.13,5.11,21.12,15.39,31.16,7.95,7.76,19.93,15.07,31.28,14.76,1.67-5.14,8.36-20.04,14.66-19.24-8.18,18.77-14.42,36.56-11.69,57.78,2.95,22.99,19.5,27.35,39.2,30.49,6.51,1.04,22.45,2.29,25.72,8.82,4.02,8.02-.92,4.91,8.21,9.21,3.66,1.73,9.37,3.43,13.36,3.9,7.59,.89,24.79,1.22,32.38,.37,6.06-.68,26.22-1.82,29.83-4.86-.21-6.14-16.71-12.98-21.85-15.01-4.67-1.84-7.78,3.15-11.76,5.57-4.18,2.54-9.59,4.09-14.44,3.77-14.74-.97-16.58,1.96-30.84-5.92-6.76-3.73-16.87-12.62-15.88-21.34l-3.75,1.41c.61-5.83,7.56-7.58,12.56-6.62l-7.28,4.39c7.26,21.61,38.38,28.12,56.55,17.66,9.04-5.2,15.9-16.42,28.01-12.46,8.09,2.65,24.75,11.38,32.18,2.77-4.31-.81-7.33-4.28-4.83-8.69,3.47-6.14,6.19-.83,8.28,1.6l.84-4.88c-.71-8.32-15.46-15.5-22.01-18.52-10.92-5.04-23.59-2.56-34.9-.74-10.29,1.06-15.75,5.8-23.92,8,2.63-3.68,17.77-8.24,22.44-9.22,10.53-2.2,17.73-3.28,28.49-1.88-1.97-2.2-8.05-5.88-10.88-8.66-6.23-6.12-3.11-7.48-4.71-13.49-5.44-.27-10.75,.79-13.04-5.58-1.35-3.75-.89-12.88,2.69-14.48l-.07,4.77,.75,6.65c.9,3.68,2.37,4.24,5.57,5.6,3.74,1.6,3.81,1.51,6.74-1.59,8.13-8.6,11.41-20.56,20.07-23.6,6.04-2.12,12.27,.7,17.6,3.45l-2.58-6.72c-2.08-8.48-14.65-12.88-22.78-12.87-7.11,.04-15.45,3.07-20.93,7.65-1.76,1.47-5.78,5.45-6.98,7.36-1.58,2.51-3.11,8.55-6.57,7.58-1.12-2.8,5.47-15.87,6.21-20.24-26.77-5.02-37.35-8.76-64.7-4.24-2.71,.45-18.36,4.89-18.96,4.72,.2-3.41,5.88-3.74,7.59-5.81-7.08-.64-14.48-1.06-20.32-5.7-5.53-4.39-7.46-13.32-1.58-18.16,10.2-8.4,30.11-5.81,40.39,1.14-7.21-2.12-21.91-7.34-28.29-1.45-9.4,8.69,4.59,16.15,11.51,18.24,11.9,3.61,20.29,.79,31.64,.74,11.35-.05,21.97,2.31,33.42,2.09-3.13-3.91-31.64-11.91-37.49-15.34,7.47,1.3,24,8.87,31.5,12.27,8.76,3.96,9.04,2.39,17.43,4.14,6,1.25,13.05,2.68,18.54-.86,5.71-.55,6.92-2.91,14.1-1.28,4.91,1.11,8.55,5.16,10.69,5.72,9.22,8.54,8.52,11.65,13.44,22.68,3.04,6.82,3.56,5.44,11.32,6.34,5.27,.61,11.49,.13,16.7-.93,8.7-1.76,19.74-4.16,27.91-7.52,4.8-1.97,20.17-10.68,18-17.3-3.24-9.9-27.39-29.18-36.15-35.46-10.56-7.57-24.1-13.76-36.59-16.98-7.31-1.88-6.89-2.31-14.23,.35l-10.91,4.23c-9.86,4.27-16.39,10.88-21.92,19.72,1.53-4.22,5.45-8.44,8.49-11.3,3.75-3.54,8.96-5.84,11.82-8.36l11.73-4.51,7.41-1.72c-1.92-1.68-18.12-3.89-21.79-4.42-5.62-.81-17.71-3.03-22.13,1.31l-.48-.11-.48,.33-.49-.07-.32,.3-9.92,5.25-.3,.1-8.3,6.61,7.38-6.29,.92-.32,10.07-5.4,9.18-3.27c-1.92-1.32-17.95-1.69-21.65-1.98-5.94-.46-14.69-1.61-17.96,5.11l-.04-.05-.86,.66-.28,.1-.09,.21-.21,.1-.1,.28-.25,.12-.09,.23-.24,.1-.08,.26-.23,.11-.09,.25-.27,.1-.06,.24-.24,.11-.15,.28-.64,.94-6.11,7.6,5.81-7.65,1.1-1.17,.3-.35,.36-.36,.31-.37,.33-.33,.35-.4,.29-.31,.07-.28,7.36-6.05c-11.93-1.34-58.14,1.03-70.27,3.5l20.46,4.03c20.49,4.44,35.3,11.61,54.56,18.5,10.98,3.93,26.03,9.65,37.14,11.91,5.49,1.11,15.12,4.15,20.44,3.54,.2-.02,16.13-5.66,18.22-6.34,.23-4.37-1.89-4.65-3.69-7.69,3.76,.87,6.21,3.16,7.45,6.91l4.21,.02c.27-4.83-1.99-6.4-4.68-9.3,5.37,1.59,15.88,9.33,11.87,15.9-7.26,11.92-10.41,5.64-19.62,9.24l-22.53-2c-5.93-2.72-20.95-5.53-28.59-8.1-9.17-3.08-18.56-5.86-27.61-9.27-12.88-4.85-43.28-17.55-55.73-17.6l-2.42-.58-17.13-2.72c-17.85-2.14-43.6-1.83-60.1,6.15h0Zm-47.97,118.96c-1.9-1.61-11.98-11.39-12.27-11.52,.42,2.61,1.87,6.55,2.89,9.06,1.55,3.79,2.58,3.96,5.94,5.68,4.59,2.36,11.39,5.94,16.23,7.21-2.44-2.86-9.51-7.66-12.79-10.43h0Zm-102.79-23.33l.12-4.45c-1.17,2.4-.59,6.96-.69,9.86-.09,2.62-1.71,5.23-2.74,7.62-2.43,5.65-3,10.01-4.29,16.03-1.82-2.47-1.94-18.24-.49-21.26,1.07-2.23,7.13-13.08,8.46-14.38,.48-1.78,1.67-3.3,2.68-4.87l5.8-7.92c-.24,2.97-.77,5.87-.92,8.89-.3,6.14-.4,2.93-2.17,7.24l1.97-2.9c.12,4.12-.98,10.04-1.21,14.52-.66,12.74,1.19,28.27,5.35,40.17,6.75,19.3,17.84,31.83,21.2,39.91-8.47-3.34-22.65-19.98-27.81-27.92-6.7-10.3-6.02-8.75-4.03-20.98,1.26-7.7,2.2-16.95,3.02-24.79l-2.32,7.17c-.61-2.18-1.63-12.18-1.03-14.19,1.14-3.76,3.81-7.87,4.65-11.1l-5.35,8.26-.22-4.88h0Zm16.02-42.1c1.46-1.41,3.82-9.54,4.21-11.91-7.65,2.96-22.97,32.32-24.9,42.83,1.58-2.24,2.76-5.19,4.42-7.59,1.64-2.38,3.72-4.72,5.13-6.81,2.11-2.75,4.26-4.75,6.42-7.24,1.08-1.25,2.43-2.06,2.99-3.79,.45-1.38,1.54-4.3,1.73-5.49h0Zm-6.72,29.33c1.52-1.87,2.57-7.11,2.24-9.63-1.87,.61-1.83,1.63-1.98,3.81-.14,2-.29,3.8-.26,5.82h0Zm327.41-11.24c2.18,1.3,2.94,8.28,2.89,11.06-.11,7.16-2.87,10.21-2.93,10.48-.15-3.41,1.11-5.61-.22-9.45-.44-1.26-2.73-5.98-3.49-6.89l3.75-5.2h0Zm126.25-2.1c1.35-1.28,6.28-2.69,8.32-3.14-2.4,2.53-4.55,2.09-6.12,6.75-.87-.8-1.75-2.41-2.19-3.62h0ZM22.8,220.74c.93-.61,1.52-1.6,2.41-2.43,2.4-2.25,1.35-5.36,3.24-11.22-.46,2.71-1.25,5.69-1.04,8.41,2.37-.73,1.51-1.78,2.23-5.83,.4-2.26,.95-4.64,1.48-6.86-1.56,1.05-2.33,2.15-2.59,4.18,.04-1.08,.1-.71-.67-.83l-.58,1.08-7.62,10.46c-1.68,1.65-5.91,9.06-7.11,11.46-1.86,3.72-3.71,10.63-3.51,14.94,1.27-2.06,2.62-6.07,3.94-8.66,1.39-2.73,3.73-5.77,4.88-8.25l4.69-6c.55,0,.42,.12,.26-.45h0Zm333.48-9.7c2.51-1.5,3.29-3.4,6.49-.02,1.43,1.51,3.4,4.88,5.94,3.83,1.91-3.18-4.63-6.82-5.38-8.62,14.63-6.07,20.65,20,16.14,36.68-.31,1.16-5.05,13.74-5.14,13.83l-19.51-9.1c4.29-5.92,7.6-9.35,7.63-17.68,.02-6.36-2.31-14.07-6.17-18.91h0Zm-287.85,26.74l3.29,5.8-1.43-4.37c-2.45-6.77-4.7-22.04-4.37-29.34,.14-1.2,2.8,12.53,4.12,15.98,1.62,4.24,4.4,9.1,7.23,12.61,5.82,7.2,12.97,13.56,19.86,19.67,13.96,12.37,35.56,20.35,53.04,25.95,10.56,3.38,21.76,5.36,32.77,6.31,5.8,.5,14.42-.28,19.11,.34,1.01,.13,10.05,6.73,12.15,8.01,14.68,8.93,14.56,6.88,30.69,8.54,23.78,2.44,15.14,2.26,21.16,8.29,1.61,1.62,4.12,2.85,6.04,4.29l-21.24-2.22c4.43,.05,25.78,3.08,28.51,5.51l-40.12-2.92,39.43,5.27c-.02,.61-1.6-.07,2.19,.29,4.05,.39,14.52,.91,17.09,2.52l-26.87-1.73c-.09,.13,16.05,3.67,18.61,4.05,6.71,.99,14.03,1.78,20.79,2.02,8.8,.32,36.1,.66,43.58-1.58l-45.65-2.2c3.19-.98,9.88-.64,13.59-.91,4.35-.31,8.65-1.07,13.01-1.45,7.55-.66,17.45-1.28,24.37-3.34,2.21,7.15,1.14,9.78-.17,16.59-15.34,.86-34.64-.88-50.19-2.01-16.26-1.18-32.8-2.01-49-3.51l1.05,.83,7.64,1.21c13.08,1.43,23.54,2.76,37.08,3.17,17.93,.55,35.21,.57,53.13,.35-2.03,5.5-5.35,12.06-11.57,12.58-7.52,.63-14.53,1.16-22.08,1.49-15.92,.71-30.6,.12-46.34,.31-27.97,.35-60.32-3.18-88.32-6.22-25.11-2.73-51.93-10.82-75.97-18.93-16.03-5.41-32.68-14.18-45.19-26.12-7.78-7.42-6.12-6.18-4.24-16.8l-2.5,9.31c-4.23-2.68-12.64-20.94-15.14-27.06-2.68-6.56-2.44-4.56-1-11.52l-1.9,3.72c-3.21-8.77-6.65-18.82-8.33-28.03-.35-1.94-.91-10.6-1.26-11.21,.24,3.04-.5,6.83-.22,10.56,.64,8.71,3.53,18.23,6.44,26.37,3.24,9.08,.53,8.14-.77,17.31-1.13,7.99-.05,13.48-.33,20.8-5.44-6.49-9.78-27.66-10.44-36.3-1.11-14.33,.36-27.64,5.11-41.13,1.7-6.78,15.77-27.38,21.51-30.47l-2.62,6.99,2.75-5.23,.33,.19-2.06,4.69c-3.06,9.6-6.89,15.79-7.21,26.79l.35,2.21c-.52-6.22,4.62-26.25,8.41-30.25,1.71-5.24,6.14-11.19,10.61-14-4.07,8.25-8.6,15.96-9.43,25.81l5.74-13.33c-.68,9.55-3.29,13.39-1.67,24.62,1.41,9.83,4.49,12.86,6.85,20.8h0Zm-21.1-7.52l.11,1.44-.18-7.67,.07,6.23h0Zm.55,1.96l.09-.64c-2.34,3.2,4.53,21.37,6.59,25.07-2.75-8.54-6.48-14.22-6.68-24.43h0Zm5.34-36.2l.09-.1-.09,.1h0Zm-11.86-.51l-.04-.06c-.06-.04,1.72-6.46,1.87-7.06,.61-2.41,1.17-5.43,1.26-7.91,.19-5.66-2.62-10.31-8.4-6.99-5.54,3.18-13.87,13.93-17.16,19.63C8.54,211,.26,226.35,0,247.95c-.4,33.56,25.47,77.08,54.51,92.56,4.2,2.24,8.1,1.76,11.32,5.9,3.19,4.12,4.6,6.26,8.59,9.87,6.27,5.69,13.91,11.04,20.85,15.89,16.97,11.87,28.39,17.77,47.54,25.4,29.88,11.91,95.42,19.45,126.71,14.75-7.27,14.77,2.8,29.84,16.9,28.16,5.17-.61,9.66-2.86,13.32-3.25-7.87-5.24-11.92,.38-17.46-11.77,5.06,1.63,2.24,5.8,20.83,5.55,3.59-.05,18.94-2.3,19.06-7.11-1.34-1.36-26.55,3.89-26.46-13.32,22.87-1.35,45.72-4.48,68.61-6.46,20.99-1.81,46.16-4.52,66.78-8.34,34.73-6.43,76.21-23.56,100.25-51.02,12.42-14.18,21.37-30.94,27.38-48.93,8.12-24.32,7.22-40.04-.36-64.61-11.08-35.93-38.52-63.42-68.52-83.73-18-12.19-31.32-16.47-50.28-25.35-19.92-9.32-35.97-13.55-57.26-18.16-22.74-4.93-43.62-7.3-66.84-8.29-24.95-1.06-46.73-2.59-71.83-.42-38.42,3.32-89.62,9.4-124.88,25.66-14.62,6.74-32.23,21.36-40.02,35.92-6.03,11.26-6.75,13.26-17.54,20.33-7.78,5.1-13.86,11.13-19.86,18.29Z"/>
  <path class="cls-6" d="M325.54,255.94c-4.21,3.05-17.59,4.91-22.52,10.59,9.43-2.15,13.92-6.42,25.83-6.15l-14.52,4.89c15.08-3.56,23.52-3.33,38.77-3.06,9.75,.18,16.2,2,24.05,7.68,3.43,2.48,3.06,3.25,5.3,5.29-.71-8.32-15.46-15.5-22.01-18.52-10.92-5.04-23.59-2.56-34.9-.74Z"/>
  <path class="cls-10" d="M56.32,193.88l3.21-2.1c-7.92,16.47-10.27,37.18,8.89,46-2.37-7.94-5.44-10.97-6.85-20.8-1.62-11.23,.99-15.06,1.67-24.62l-5.74,13.33c.83-9.85,5.37-17.56,9.43-25.81-4.47,2.81-8.91,8.76-10.61,14Z"/>
  <path class="cls-5" d="M213.61,328.6l-20.03-1.72c10.05,4.89,18.86,5.84,29.93,6.48,3.34,.19,34.7,1.62,34.96,1.47l14.96-.63-31.24-3.37c-11.39-.99-19.26-1.66-30.53-4.21-9.25-2.09-18.42-4.4-27.59-6.84-8.94-2.38-18.19-5.97-26.87-8.12,7.24,5.09,55.75,16.52,56.41,16.94Z"/>
  <path class="cls-10" d="M327.3,222.05c.9,3.68,2.37,4.24,5.57,5.6,3.74,1.6,3.81,1.51,6.74-1.59,8.13-8.6,11.41-20.56,20.07-23.6,6.04-2.12,12.27,.7,17.6,3.45l-2.58-6.72c-5.87-1.74-8.22-6.52-15.79-3.08-11.5,5.23-14,15.71-18.9,23.41-4.07,6.39-6.73,7.87-12.71,2.51Z"/>
  <path class="cls-6" d="M398.01,124l29.01,6.55,.18-.06c-21.57-9.66-43.93-16.43-67.11-20.46l4.93,7.49,32.86,6.2,.43-.73-.3,1Z"/>
  <path class="cls-7" d="M345.45,290.55c-2.22-3.08-11.81,.22-13.97,1.85,6.83,1.41,12.48,1.05,17.48,7.25,3.58,4.44,8.1,8.6,11.02,13.55,2.93,4.96,5.12,14.05,4.79,19.83-.56,10.01-5.47,12.82-6.66,17.99l-.33,.35-.36,.35-.35,.35-.33,.35-.31,.19,.31-.19,.33-.35c.5-.02,.42,.13,.35-.35,.63,.09,.55,.25,.36-.35,.69,.18,.61,.32,.33-.35,1.24-.24,1.3-.82,2.3-1.53l-1.09,1.81c4.26-2.89,7.53-14.45,8.44-19.83l.44,5.44c5.53-9.6-3.66-26.69-10.55-34.81-.75-.88-8.11-7.78-8.59-7.45l-.35,.37c3.09,1.97,5.5,6.51,7.86,9.48-1.41-2.09-5.13-5.54-7.36-7.21-5.37-4.02-2.35-.32-7.88-6.68l4.11-.05Z"/>
  <path class="cls-5" d="M224.06,214.5c4.06-2.64,11.33-16.12,24.63-16.8,6.73-.34,10.55,.57,16.22,4.13,6.7,4.2,6.64,4.55,8.28,12.32,4.16-6.03-1.61-12.44-6.26-15.44-6.6-4.26-9.44-5.6-17.53-5.31-10.35,.37-24.81,9.31-25.34,21.09Z"/>
  <path class="cls-12" d="M367.49,348.47c1.22-2.58,2.11-5.43,3.06-8.13,2.16-6.14,.2-20.98-4-27-6.77-9.69-9.95-17.1-21.09-22.79l-4.11,.05c5.53,6.35,2.51,2.65,7.88,6.68,2.23,1.67,5.95,5.12,7.36,7.21-2.36-2.96-4.77-7.5-7.86-9.48l.35-.37c.48-.33,7.84,6.56,8.59,7.45,6.88,8.12,16.08,25.21,10.55,34.81l-.44-5.44c-.91,5.38-4.18,16.94-8.44,19.83l1.09-1.81c-1.01,.71-1.07,1.29-2.3,1.53,.28,.67,.36,.53-.33,.35,.19,.6,.26,.44-.36,.35,.07,.48,.15,.33-.35,.35l-.33,.35-.31,.19-3.63,4.39-.41,.27-.25,.28,.25-.28,.41-.27c3.09-1.14,6.13-2.12,8.57-4.37-.64,1.29-1.73,2.51-2.66,3.52l-3.5,3.61c5.46-1.55,9.5-6.58,12.27-11.29Z"/>
  <path class="cls-10" d="M415.07,283.92l3.67-.56c.6-8.42,7-8.48,14.34-8.77-8.09-5.84-26.66-.47-36.19,.54,1.74,1.57,7.18,2.59,9.84,3.77,3,1.33,5.69,3.18,8.36,5.02Z"/>
  <path class="cls-6" d="M227.68,211.54c2.19,.93,13.47-8.8,22.6-8.05,5.23,.43,20.34,10.55,21.13,10.43,1.58-7.88-14.79-14.21-20.75-14.63-6.03-.43-21.5,7.15-22.98,12.25Z"/>
  <path class="cls-10" d="M247.76,138.91c5.57,2.98,20.66,6.05,27.83,8.65,8.84,3.2,17.69,7.04,26.58,10.35,13.08,4.86,44.54,15.01,57.52,15.98-5.93-2.72-20.95-5.53-28.59-8.1-9.17-3.08-18.56-5.86-27.61-9.27-12.88-4.85-43.28-17.55-55.73-17.6l-2.42-.58,2.42,.58Z"/>
  <path class="cls-6" d="M304.04,307.44c9.08,7.81,35.71,7.35,46.3,2.74l-.45-2.79c-1.14-.54-19.41,1.26-22.62,1.34-7.7,.18-15.77,.25-23.24-1.28Z"/>
  <path class="cls-10" d="M387.11,291.74c5.31-4.3,19.23-8.27,26.39-7.76-1.68-1.7-20.29-6.92-23.38-7.05-.05,4.7-.61,10.98-3.01,14.81Z"/>
  <path class="cls-10" d="M15.57,258.7l1.14,7.58-1.14-7.58h0Zm.11-.01l-.43-3.49c-1.34,1.29-5.13,14.5-4.7,16.7,1.13,5.94,4.59,10.78,5.97,15.35-2.92-19.16,2.9-22.83,2-28.35-.54-3.31-.96-6.62-1.49-9.94-2.02,2.87-1.53,6.33-1.35,9.73Z"/>
  <path class="cls-10" d="M17.48,232.92l.25-2.14c-1.33,1.3-7.39,12.15-8.46,14.38-1.45,3.03-1.32,18.79,.49,21.26,1.29-6.02,1.85-10.37,4.29-16.03,1.03-2.39,2.65-4.99,2.74-7.62,.1-2.9-.47-7.46,.69-9.86Z"/>
  <path class="cls-10" d="M223.4,116.01l-16.14-1.33c-4.32,.56-10.85,2.38-15.04,3.74-4.21,1.37-10.48,2.61-10.39,8.48,1.02-.14,6.9-3.44,8.83-4.18,3.55-1.36,6.41-2.36,10.19-2.97,2.91-.48,21.56-3.11,22.56-3.73Z"/>
  <path class="cls-10" d="M435.21,274.57l17.31,.02c-1.75-1.78-12.96-5.84-10.23-9.25l-18.08,5.53,11,3.7Z"/>
  <path class="cls-10" d="M22.23,211.79c-.67-1.03-.55,.19-.14-1.49,.64-2.65,5.5-12.44,7.47-15.17,1.44-2,4.48-3.88,3.81,.15,1.46-1.41,3.82-9.54,4.21-11.91-7.65,2.96-22.97,32.32-24.9,42.83,1.58-2.24,2.76-5.19,4.42-7.59,1.64-2.38,3.72-4.72,5.13-6.81Z"/>
  <path class="cls-10" d="M458.23,258.38c6.83,.12,13.41,.89,20.13,2.05,5.67,.97,13.09,3.58,18.22,4.19-5.24-5.9-26.69-8.67-28.63-12.93-1.23,.68-2.22,1.57-2.67,2.8,6.59,1.65,10.46,2.02,16.44,5.83-3.89-1.11-7.68-2.98-12.09-4.08-1.67-.42-4.91-1.57-6.33-.97-1.3,.54-4.25,2.29-5.07,3.12Z"/>
  <path class="cls-11" d="M132.93,271.14c-2.44-2.86-9.51-7.66-12.79-10.43-1.9-1.61-11.98-11.39-12.27-11.52,.42,2.61,1.87,6.55,2.89,9.06,1.55,3.79,2.58,3.96,5.94,5.68,4.59,2.36,11.39,5.94,16.23,7.21Z"/>
  <path class="cls-6" d="M358.61,140.33l36.38,4.92-.05,.43c-3.84-.44-17.5-8.93-25.42-9.58l-10.91,4.23Z"/>
  <path class="cls-5" d="M310.54,280.35c.25-1.03,1.07-3.37,1.83-4.16,.96-1,3.5-1.3,4.61-.32,2.7,2.4-3.39,5.19-6.43,4.47h0Zm9.72-1.6c1.31-3.87-2.39-6.62-5.76-6.71-3.3-.09-4.92,3.84-6.92,6.14-5.96,6.86,10.17,7.96,12.68,.56Z"/>
  <path class="cls-10" d="M162.72,136.56l6.01-2.13c.05,.1-.06,.02-.05,0,.18-.55,1.28-.83,2.02-1.14-1.45-1.11-3.48-1.29-4.21-3.07-.81-2.01-1.05-4.16-.76-6.31l-4.93,.91c1.55,1.3,3.48,1.77,3.53,4.07-2.19,2.09-12.59,3.83-15.9,4.37,2.95,2.58,11.49,1.3,14.28,3.3Z"/>
  <path class="cls-7" d="M281.3,418.51c.73-.39,.15-.29,.65-.03-.84,3.34-.15,3.62,2.32,5.3,6,4.08,17.82,4.76,20.3,3.07l-5.35-2.17-2.54-.27c1.16,1.56,2.19,1.5,3.51,2.5-7.35-.46-14.67-6.14-15.63-14.15l-3.25,5.75Z"/>
  <path class="cls-5" d="M288.96,289.29c.02-3.46,3.51-6.59,5.33-4.56,2.39,2.68-3.76,4.37-5.33,4.56h0Zm8.76-1.9c1.73-5.46-7.47-9.7-11.54,.2-3.42,8.33,9.51,6.21,11.54-.2Z"/>
  <path class="cls-5" d="M356.61,274.85c-.06-2.63,.25-3.14,2.89-2.99,1.67,.09,3.33,.34,4.41,1.71-1.61,3.02-4.73,3.4-7.3,1.28h0Zm-3.07-.25c1.95,7,13.69,6.06,12.63-.61-1.14-7.18-14.6-6.48-12.63,.61Z"/>
  <path class="cls-11" d="M259.74,243.57c.92-.89,1.23-2.53,1.52-3.76l3.12-12.27c-2.26-2.31-7.46-4.98-10.67-5.18,2.91,3.38,3.72,3.81,4.39,8.99,.56,4.34,1.37,7.72,1.63,12.23Z"/>
  <path class="cls-6" d="M472.86,186.27l-.32,.3-.3,.33c-.99,1.99-.65,1.46,.09,3.28l.24,.41c6.98-.45,15.02-2.95,22.49-3.67-3.72-.98-6.63-2.18-10.64-2.38-5.5-.28-7.02,1.03-11.56,1.73Z"/>
  <path class="cls-6" d="M22.23,211.79c2.11-2.75,4.26-4.75,6.42-7.24,1.08-1.25,2.43-2.06,2.99-3.79,.45-1.38,1.54-4.3,1.73-5.49,.66-4.03-2.37-2.15-3.81-.15-1.97,2.73-6.83,12.52-7.47,15.17-.41,1.68-.53,.47,.14,1.49Z"/>
  <path class="cls-10" d="M17.85,227.19l1.79-9.49c-1.68,1.65-5.91,9.06-7.11,11.46-1.86,3.72-3.71,10.63-3.51,14.94,1.27-2.06,2.62-6.07,3.94-8.66,1.39-2.73,3.73-5.77,4.88-8.25Z"/>
  <path class="cls-11" d="M350.31,218.55c.75,.9,3.05,5.63,3.49,6.89,1.33,3.84,.07,6.05,.22,9.45,.06-.27,2.82-3.32,2.93-10.48,.04-2.78-.71-9.76-2.89-11.06l-3.75,5.2Z"/>
  <path class="cls-6" d="M534.31,228.49c-.64-8.49-26.16-15.84-33.05-17.42,5.18,2.03,31.57,13.46,33.05,17.42Z"/>
  <path class="cls-10" d="M365.6,300.85c-.12-2.99,1.13-4.83,4.19-3.95,.63,1.57,.21,2.66,.03,4.31-.2,1.88-.31,2.53-2.27,2.46l-.22-.43c.02-.61,.18-.49-.35-.49l.35,.49,.22,.43,2.34,4.54,.89-1.24c2.67-5.2-.17-7.96-.27-12.18-5.85,.27-6.77-.2-12.07-1.55l7.15,7.61Z"/>
  <path class="cls-6" d="M452.19,153.78c-.13,4.87,12.23,9.77,15.58,11.1-2.27-4.03-10.19-11.33-15.58-11.1Z"/>
  <path class="cls-6" d="M19.65,217.7l-1.79,9.49,4.69-6,.26-.45c.27-3.75,4.33-10.48,4.47-13.5l-7.62,10.46Z"/>
  <path class="cls-5" d="M515.95,273.93c-.08,.6-.79,.84-1.25,.98,.43-.76,.27-.52,1.25-.98h0Zm-1.3,1.02c-.69,2.37-14.5,11.75-17.34,13.97-3.16,2.46-15.11,12.17-17.46,13.52,11.11-6.61,25.4-18.75,35.55-27.76,3.74-3.32,7.82-5.88,11.86-8.86-8.59,6.45-27.11,16.61-38,23.46-3.33,2.1-9.36,5.96-12.82,7.3,9.7-3.91,36.92-21.5,38.21-21.63Z"/>
  <path class="cls-10" d="M27.27,207.24c-.14,3.02-4.2,9.74-4.47,13.5l-.26,.45c.55,0,.42,.12,.26-.45,.93-.61,1.52-1.6,2.41-2.43,2.4-2.25,1.35-5.36,3.24-11.22-.46,2.71-1.25,5.69-1.04,8.41,2.37-.73,1.51-1.78,2.23-5.83,.4-2.26,.95-4.64,1.48-6.86-1.56,1.05-2.33,2.15-2.59,4.18,.04-1.08,.1-.71-.67-.83l-.58,1.08Z"/>
  <path class="cls-6" d="M256.57,113.38c-3.3-.15-9.3,.91-12.81,1.36-4.07,.53-8.41,1.27-12.44,1.67,1.89,.96,13.25,.02,16.11-.24,5.77-.53,8.3-.83,13.54-3.09l-4.39,.3Z"/>
  <path class="cls-5" d="M295.08,250.64c-1.06-.82-1.87-1.75-2.9-2.51-.99-.74-2.2-1.39-3.27-2.18-1.46-1.08-3.66-3.9-4.8-5.54-.62,3.98,.23,5.43,3.26,7.46,3.14,2.09,3.71,2.65,7.7,2.77Z"/>
  <path class="cls-6" d="M486.74,226.45c.96,1.26,5.66,2.52,7.37,3.17,2.36,.9,4.78,2.18,7.08,3-2.86-1.58-12.07-4.89-13.51-6.52,5.56,.04,23.08,2.59,24.9,2.29-4.21-.33-8.95-1.26-13.18-2.11-2.06-.42-4.05-.88-6.11-1.3-5.92-1.22-4.6,.27-5.21-.79-1.58-.07-1.87-.35-2.96,.98l.77,.98,2.1-1.35-1.24,1.66Z"/>
  <path class="cls-6" d="M295.65,135.3l1.1-1.17,.3-.35,.36-.36,.31-.37,.33-.33,.35-.4,.29-.31,.07-.28c-1.88-.07-15.44,2.07-16.88,2.67l13.77,.9Z"/>
  <path class="cls-6" d="M223.37,204.84c-2.6-1.26-8.59-2.89-11.44-2.02-.58,2.37,3.02,3.22,4.87,3.2,2.56-.03,4.13-.99,6.57-1.18Z"/>
  <path class="cls-11" d="M310.54,280.35c3.04,.72,9.13-2.07,6.43-4.47-1.11-.98-3.65-.69-4.61,.32-.76,.79-1.58,3.13-1.83,4.16Z"/>
  <path class="cls-6" d="M365.6,300.85l1.38,1.9c.53,0,.36-.12,.35,.49l.22,.43c1.96,.07,2.07-.58,2.27-2.46,.17-1.65,.6-2.74-.03-4.31-3.06-.88-4.31,.96-4.19,3.95Z"/>
  <path class="cls-11" d="M356.61,274.85c2.57,2.12,5.69,1.74,7.3-1.28-1.08-1.37-2.74-1.62-4.41-1.71-2.64-.15-2.95,.36-2.89,2.99Z"/>
  <path class="cls-11" d="M288.96,289.29c1.56-.19,7.72-1.88,5.33-4.56-1.81-2.03-5.3,1.1-5.33,4.56Z"/>
  <path class="cls-11" d="M380.3,284.28c.95-1.89,.21-1.74-1.08-3.01-1.31-1.29-1.1-2-3.04-2.24-.74,1.68-1.61,2.41,0,3.98,1.01,.98,2.85,1.78,4.11,1.27Z"/>
  <path class="cls-10" d="M480.31,211.26c.45,1.2,1.32,2.81,2.19,3.62,1.57-4.67,3.72-4.23,6.12-6.75-2.03,.45-6.97,1.86-8.32,3.14Z"/>
  <path class="cls-10" d="M26.65,224.59c1.52-1.87,2.57-7.11,2.24-9.63-1.87,.61-1.83,1.63-1.98,3.81-.14,2-.29,3.8-.26,5.82Z"/>
  <path class="cls-6" d="M20.41,225.91c-1,1.57-2.19,3.09-2.68,4.87l-.25,2.14-.12,4.45,3.55-11.66-.5,.2Z"/>
  <path class="cls-11" d="M403.36,354.54c2.15,.11,6.86-.29,8.56-1.39-.68-.41,.75-.29-.92-.27l-3.47,.64c-1.37,.25-3.1,.37-4.18,1.02Z"/>
  <rect class="cls-2" x="29.62" y="208.33" width="68.97" height="76.55"/>
  <rect class="cls-3" x="117.05" y="206.39" width="71.95" height="75.93"/>
  <rect class="cls-1" x="383.63" y="354.14" width="72.07" height="77"/>
  <rect class="cls-4" x="484.44" y="354.76" width="72.47" height="80.44"/>
  <path class="cls-9" d="M510.44,349.28v-21.96h-82.27v21.96h38.42v90.81h-83.99v-90.81h34.64v-21.96c-15.81,0-27.4,.03-43.21,.03-1.09-4.2-1.44-6.34-2.71-9.72,.72-.59,2.77-1.88,3.59-2.82h184.63v12.51h-38.15v21.96h37.82v92.65l-83.99-1.85v-90.81h35.23Zm-216.02-21.96H19.06v-12.51H53.26v-25.53H19.02v-86.92H103.01v86.92h-38.81v25.53h79.39v-25.53h-35.43v-86.92h82.1v86.92h-35.73v25.53h112.07c2.22,2.7,8.95,5.89,13.96,8.71,2.45,1.37,12.96,3.4,13.87,3.8h0ZM91.54,214.19H30.49v63.27h61.05v-63.27h0Zm87.25,0h-59.16v63.27h59.16v-63.27h0Zm276.32,146.92h-61.05v67.16h61.05v-67.16h0Zm92.62,0h-61.05v67.16h61.05v-67.16Z"/>
  <path class="cls-12" d="M286.67,435.38c-2.82-2.23-4.03-2.8-5.17-6.69-1.06-3.6-1.44-6.61-.2-10.17l3.25-5.75c.96,8.02,8.28,13.69,15.63,14.15-1.31-1-2.35-.94-3.51-2.5l2.54,.27c-1.22-1.24-2.1-1.46-3.38-3.12-.93-1.2-1.79-2.48-2.73-3.78-8.51-11.81,6.49-24.36,14.87-29.75l.4-.34,.46-.25s.02,0,.03-.01c2.71-2.58,4.64-3.91,14.68-9.69-11.08,1.38-43.72,30.04-47.36,40.75-2.4,7.06,.94,19.43,8.98,18.03l-1.81-2.4,3.32,1.26Z"/>
</svg>